<svg viewBox="0 0 1400 866" xmlns="http://www.w3.org/2000/svg" width="1400" height="866" font-family="DejaVu Sans, Verdana, Arial, sans-serif"><rect width="1400" height="866" fill="white"/>
<text x="700.0" y="44" text-anchor="middle" font-size="38" font-weight="bold" fill="#16324f">Föy 5 devresi: PIR + buton + buzzer</text>
<rect x="50" y="100" width="260" height="580" rx="16" fill="#1b2631"/><text x="150.0" y="145" text-anchor="middle" font-size="34" font-weight="bold" fill="white">ESP32</text>
<rect x="290" y="155" width="40" height="30" fill="#c62828"/><text x="280" y="178" text-anchor="end" font-size="27" font-weight="bold" fill="white">VIN</text>
<rect x="290" y="245" width="40" height="30" fill="#1f6fb2"/><text x="280" y="268" text-anchor="end" font-size="27" font-weight="bold" fill="white">GPIO32</text>
<rect x="290" y="365" width="40" height="30" fill="#e07b00"/><text x="280" y="388" text-anchor="end" font-size="27" font-weight="bold" fill="white">3V3</text>
<rect x="290" y="435" width="40" height="30" fill="#1f6fb2"/><text x="280" y="458" text-anchor="end" font-size="27" font-weight="bold" fill="white">GPIO33</text>
<rect x="290" y="555" width="40" height="30" fill="#1f6fb2"/><text x="280" y="578" text-anchor="end" font-size="27" font-weight="bold" fill="white">GPIO26</text>
<rect x="290" y="645" width="40" height="30" fill="#222222"/><text x="280" y="668" text-anchor="end" font-size="27" font-weight="bold" fill="white">GND</text>
<polyline points="350,660 1320,660" fill="none" stroke="#222222" stroke-width="6" stroke-linejoin="round"/>
<text x="1320" y="648" text-anchor="end" font-size="22" fill="#222" font-weight="bold">GND hattı</text>
<rect x="820" y="130" width="420" height="170" rx="12" fill="#5d4037"/>
<text x="1110" y="215.0" text-anchor="middle" font-size="29" font-weight="bold" fill="white">HC-SR501 PIR</text>
<text x="1110" y="243.0" text-anchor="middle" font-size="22" fill="white">çıkış en fazla 3,3 V</text>
<rect x="808" y="160" width="24" height="20" fill="#d8c27a" stroke="#8a6d1f"/>
<text x="840" y="176" font-size="22" font-weight="bold" fill="white">VCC</text>
<rect x="808" y="205" width="24" height="20" fill="#d8c27a" stroke="#8a6d1f"/>
<text x="840" y="221" font-size="22" font-weight="bold" fill="white">OUT</text>
<rect x="808" y="250" width="24" height="20" fill="#d8c27a" stroke="#8a6d1f"/>
<text x="840" y="266" font-size="22" font-weight="bold" fill="white">GND</text>
<polyline points="350,170 808,170" fill="none" stroke="#c62828" stroke-width="6" stroke-linejoin="round"/>
<polyline points="350,260 700,260 700,215 808,215" fill="none" stroke="#1f6fb2" stroke-width="6" stroke-linejoin="round"/>
<polyline points="808,260 760,260 760,660" fill="none" stroke="#222222" stroke-width="6" stroke-linejoin="round"/>
<circle cx="760" cy="660" r="8" fill="#222222"/>
<rect x="820" y="350" width="420" height="170" rx="12" fill="#2e6b3a"/>
<text x="1110" y="435.0" text-anchor="middle" font-size="29" font-weight="bold" fill="white">Aktif buzzer</text>
<text x="1110" y="463.0" text-anchor="middle" font-size="22" fill="white">Föy 1'deki modül</text>
<rect x="808" y="380" width="24" height="20" fill="#d8c27a" stroke="#8a6d1f"/>
<text x="840" y="396" font-size="22" font-weight="bold" fill="white">VCC</text>
<rect x="808" y="440" width="24" height="20" fill="#d8c27a" stroke="#8a6d1f"/>
<text x="840" y="456" font-size="22" font-weight="bold" fill="white">S/IN</text>
<rect x="808" y="480" width="24" height="20" fill="#d8c27a" stroke="#8a6d1f"/>
<text x="840" y="496" font-size="22" font-weight="bold" fill="white">GND</text>
<polyline points="350,380 808,380 808,390" fill="none" stroke="#e07b00" stroke-width="6" stroke-linejoin="round"/>
<polyline points="350,450 808,450" fill="none" stroke="#1f6fb2" stroke-width="6" stroke-linejoin="round"/>
<polyline points="808,490 790,490 790,660" fill="none" stroke="#222222" stroke-width="6" stroke-linejoin="round"/>
<circle cx="790" cy="660" r="8" fill="#222222"/>
<rect x="470" y="540" width="120" height="100" rx="12" fill="#3c4650"/>
<text x="530.0" y="598.0" text-anchor="middle" font-size="29" font-weight="bold" fill="white"></text>
<text x="530" y="530" text-anchor="middle" font-size="22" fill="#333">buton (çapraz bacak)</text>
<polyline points="350,570 458,570" fill="none" stroke="#1f6fb2" stroke-width="6" stroke-linejoin="round"/>
<polyline points="602,620 640,620 640,660" fill="none" stroke="#222222" stroke-width="6" stroke-linejoin="round"/>
<circle cx="640" cy="660" r="8" fill="#222222"/>
<polyline points="458,570 602,620" fill="none" stroke="#c62828" stroke-width="3" stroke-linejoin="round" stroke-dasharray="10,7"/>
<rect x="50" y="700" width="1300" height="146" rx="8" fill="#fdf1e6"/>
<text x="700" y="736" text-anchor="middle" font-size="25" fill="#7a3d00" font-weight="bold">PIR VCC → VIN (5 V). PIR OUT'u ESP32'ye bağlamadan ÖNCE multimetreyle</text>
<text x="700" y="776" text-anchor="middle" font-size="25" fill="#7a3d00" font-weight="bold">ölç: en fazla 3,3 V olmalı.</text>
<text x="700" y="816" text-anchor="middle" font-size="25" fill="#7a3d00">Buzzer VCC → 3V3. Buton: çapraz bacaklar GPIO26 ve GND.</text>
</svg>