<svg xmlns="http://www.w3.org/2000/svg" xmlns:xlink="http://www.w3.org/1999/xlink" version="1.1" width="244" height="128" viewBox="0 0 244.34375 128" class="mc-blok pxt-renderer classic-theme"><style>.mc-blok .blocklyNonEditableField>text{pointer-events:none}
.mc-blok .blocklyText text{cursor:default}
.mc-blok .blocklyField{cursor:default}
.mc-blok .blocklyInputField{cursor:text}
.mc-blok .field-text-quote{fill:#a31515 !important}
.mc-blok .blocklyText{font:600 14.66px 'JetBrains Mono',monospace}
.mc-blok .blocklyText{fill:#fff}
.mc-blok .blocklyNonEditableField>rect:not(.blocklyDropdownRect){fill:#fff}
.mc-blok .blocklyNonEditableField>text,.mc-blok .blocklyNonEditableField>g>text{fill:#575E75}
.mc-blok text.blocklyText{font-weight:600;text-rendering:optimizeLegibility;-webkit-font-smoothing:subpixel-antialiased;-webkit-font-smoothing:antialiased}
.mc-blok text.blocklyText{user-drag:none;user-select:none;-moz-user-select:none;-webkit-user-drag:none;-webkit-user-select:none;-ms-user-select:none}</style><g class="blocklyWorkspace"><g class="blocklyBlockCanvas" transform="translate(-10, -10) scale(1)"><g class="pxt-on-start blocklyBlock" transform="translate(10, 10)"><path class="blocklyPath" stroke="#176cbf" fill="#1e90ff" d="m 0,0 m 0,4 a 4 4 0 0,1 4,-4 h 183.9375 a 4 4 0 0,1 4,4 v 4 V 8 V 40 V 44 a 4 4 0 0,1 -4,4 H 64 c -2,0 -3,1 -4,2 l -4,4 c -1,1 -2,2 -4,2 h -12 c -2,0 -3,-1 -4,-2 l -4,-4 c -1,-1 -2,-2 -4,-2 h -8 a 4 4 0 0,0 -4,4 v 40 a 4 4 0 0,0 4,4 h 8 c 2,0 3,1 4,2 l 4,4 c 1,1 2,2 4,2 h 12 c 2,0 3,-1 4,-2 l 4,-4 c 1,-1 2,-2 4,-2 H 187.9375 a 4 4 0 0,1 4,4 V 104 V 124 a 4 4 0 0,1 -4,4 h -183.9375 a 4 4 0 0,1 -4,-4 z"/><g class="device_print_message blocklyBlock" transform="translate(16, 48)"><path class="blocklyPath" stroke="#176cbf" fill="#1e90ff" d="m 0,0 m 0,4 a 4 4 0 0,1 4,-4 h 8 c 2,0 3,1 4,2 l 4,4 c 1,1 2,2 4,2 h 12 c 2,0 3,-1 4,-2 l 4,-4 c 1,-1 2,-2 4,-2 h 176.34375 a 4 4 0 0,1 4,4 v 8 V 40 V 44 V 44 a 4 4 0 0,1 -4,4 h -176.34375 c -2,0 -3,1 -4,2 l -4,4 c -1,1 -2,2 -4,2 h -12 c -2,0 -3,-1 -4,-2 l -4,-4 c -1,-1 -2,-2 -4,-2 h -8 a 4 4 0 0,1 -4,-4 z"/><g class="text blocklyBlock field_blocks blocklyShadow" transform="translate(120.765625, 8)"><path class="blocklyPath" stroke="#bfbfbf" fill="#fff" d="m 16,0 h 67.578125 a 16 16 0 0,1 16,16 v 0 a 16 16 0 0,1 -16,16 V 32 h -67.578125 a 16 16 0 0,1 -16,-16 v 0 a 16 16 0 0,1 16,-16 z"/><g class="blocklyField blocklyInputField blocklyTextInputField blocklyNonEditableField" transform="translate(11,6.5)"><text font-size="16px" class="field-text-quote" transform="translate(0,10)">"</text><text class="blocklyText blocklyFieldText" dominant-baseline="central" x="8" y="9.5">MERHABA</text><text font-size="16px" class="field-text-quote" transform="translate(72.578125,10)">"</text></g></g><g class="blocklyLabelField" transform="translate(8,14.5)"><text class="blocklyText blocklyFieldText" dominant-baseline="central" x="0" y="9.5">dizgi</text></g><g class="blocklyLabelField" transform="translate(59.984375,14.5)"><text class="blocklyText blocklyFieldText" dominant-baseline="central" x="0" y="9.5">göster</text></g></g><g class="blocklyLabelField" transform="translate(8,14.5)"><text class="blocklyText blocklyFieldText" dominant-baseline="central" x="0" y="9.5">program başladığında</text></g></g></g></g></svg>
