<svg xmlns="http://www.w3.org/2000/svg" viewBox="0 0 360 150" width="360" height="150">
  <rect width="360" height="150" fill="#ffffff"/>
  <!-- 1 · Giriş: A düğmesi -->
  <rect x="8" y="12" width="96" height="124" rx="12" fill="#f6f2e7" stroke="#14213d" stroke-width="2"/>
  <circle cx="22" cy="28" r="11" fill="#0e7c86"/>
  <text x="22" y="33" font-size="13" font-weight="700" text-anchor="middle" fill="#ffffff">1</text>
  <circle cx="56" cy="68" r="26" fill="#ffffff" stroke="#14213d" stroke-width="3"/>
  <text x="56" y="78" font-size="28" font-weight="700" text-anchor="middle" fill="#14213d">A</text>
  <text x="56" y="122" font-size="15" font-weight="700" text-anchor="middle" fill="#14213d">GİRİŞ</text>
  <!-- ok -->
  <path d="M108 74H124" stroke="#14213d" stroke-width="3" stroke-linecap="round"/>
  <path d="M122 66L134 74L122 82Z" fill="#14213d"/>
  <!-- 2 · Kod: üç satır -->
  <rect x="132" y="12" width="96" height="124" rx="12" fill="#f6f2e7" stroke="#14213d" stroke-width="2"/>
  <circle cx="146" cy="28" r="11" fill="#0e7c86"/>
  <text x="146" y="33" font-size="13" font-weight="700" text-anchor="middle" fill="#ffffff">2</text>
  <rect x="152" y="50" width="56" height="9" rx="4.5" fill="#0e7c86"/>
  <rect x="160" y="68" width="48" height="9" rx="4.5" fill="#1565c0"/>
  <rect x="152" y="86" width="40" height="9" rx="4.5" fill="#a8149a"/>
  <text x="180" y="122" font-size="15" font-weight="700" text-anchor="middle" fill="#14213d">KOD</text>
  <!-- ok -->
  <path d="M232 74H248" stroke="#14213d" stroke-width="3" stroke-linecap="round"/>
  <path d="M246 66L258 74L246 82Z" fill="#14213d"/>
  <!-- 3 · Çıkış: 5 × 5 LED ekranında A -->
  <rect x="256" y="12" width="96" height="124" rx="12" fill="#f6f2e7" stroke="#14213d" stroke-width="2"/>
  <circle cx="270" cy="28" r="11" fill="#0e7c86"/>
  <text x="270" y="33" font-size="13" font-weight="700" text-anchor="middle" fill="#ffffff">3</text>
  <rect x="280" y="42" width="56" height="56" rx="8" fill="#1a1f2b"/>
  <g fill="#ff5a5a">
    <circle cx="298" cy="52" r="3.8"/><circle cx="308" cy="52" r="3.8"/><circle cx="318" cy="52" r="3.8"/>
    <circle cx="289" cy="61" r="3.8"/><circle cx="327" cy="61" r="3.8"/>
    <circle cx="289" cy="70" r="3.8"/><circle cx="298" cy="70" r="3.8"/><circle cx="308" cy="70" r="3.8"/><circle cx="318" cy="70" r="3.8"/><circle cx="327" cy="70" r="3.8"/>
    <circle cx="289" cy="79" r="3.8"/><circle cx="327" cy="79" r="3.8"/>
    <circle cx="289" cy="88" r="3.8"/><circle cx="327" cy="88" r="3.8"/>
  </g>
  <g fill="#3a3f4d">
    <circle cx="289" cy="52" r="3.8"/><circle cx="327" cy="52" r="3.8"/>
    <circle cx="298" cy="61" r="3.8"/><circle cx="308" cy="61" r="3.8"/><circle cx="318" cy="61" r="3.8"/>
    <circle cx="298" cy="79" r="3.8"/><circle cx="308" cy="79" r="3.8"/><circle cx="318" cy="79" r="3.8"/>
    <circle cx="298" cy="88" r="3.8"/><circle cx="308" cy="88" r="3.8"/><circle cx="318" cy="88" r="3.8"/>
  </g>
  <text x="304" y="122" font-size="15" font-weight="700" text-anchor="middle" fill="#14213d">ÇIKIŞ</text>
</svg>
