<svg xmlns="http://www.w3.org/2000/svg" viewBox="0 0 265.3 454.6" width="424" height="727" font-family="Arial, Helvetica, sans-serif">
<rect x="109" y="12.8" width="152.3" height="426" rx="6" fill="#f4f7fa" stroke="#c9d3dc" stroke-width="1"/>
<path d="M130 60.2L168.6 60.2" fill="none" stroke="#e8f3fa" stroke-width="7"/>
<path d="M130 109.8L168.6 109.8" fill="none" stroke="#e8f3fa" stroke-width="7"/>
<path d="M130 122.2L168.6 122.2" fill="none" stroke="#e8f3fa" stroke-width="7"/>
<circle cx="130" cy="47.8" r="2" fill="#ffffff" stroke="#c9d3dc" stroke-width="0.7"/>
<circle cx="139.7" cy="47.8" r="2" fill="#ffffff" stroke="#c9d3dc" stroke-width="0.7"/>
<circle cx="149.3" cy="47.8" r="2" fill="#ffffff" stroke="#c9d3dc" stroke-width="0.7"/>
<circle cx="159" cy="47.8" r="2" fill="#ffffff" stroke="#c9d3dc" stroke-width="0.7"/>
<circle cx="168.6" cy="47.8" r="2" fill="#ffffff" stroke="#c9d3dc" stroke-width="0.7"/>
<circle cx="197.6" cy="47.8" r="2" fill="#ffffff" stroke="#c9d3dc" stroke-width="0.7"/>
<circle cx="207.2" cy="47.8" r="2" fill="#ffffff" stroke="#c9d3dc" stroke-width="0.7"/>
<circle cx="216.9" cy="47.8" r="2" fill="#ffffff" stroke="#c9d3dc" stroke-width="0.7"/>
<circle cx="226.5" cy="47.8" r="2" fill="#ffffff" stroke="#c9d3dc" stroke-width="0.7"/>
<circle cx="236.2" cy="47.8" r="2" fill="#ffffff" stroke="#c9d3dc" stroke-width="0.7"/>
<circle cx="130" cy="60.2" r="2" fill="#ffffff" stroke="#c9d3dc" stroke-width="0.7"/>
<circle cx="139.7" cy="60.2" r="2" fill="#ffffff" stroke="#c9d3dc" stroke-width="0.7"/>
<circle cx="149.3" cy="60.2" r="2" fill="#ffffff" stroke="#c9d3dc" stroke-width="0.7"/>
<circle cx="159" cy="60.2" r="2" fill="#ffffff" stroke="#c9d3dc" stroke-width="0.7"/>
<circle cx="168.6" cy="60.2" r="2" fill="#ffffff" stroke="#c9d3dc" stroke-width="0.7"/>
<circle cx="197.6" cy="60.2" r="2" fill="#ffffff" stroke="#c9d3dc" stroke-width="0.7"/>
<circle cx="207.2" cy="60.2" r="2" fill="#ffffff" stroke="#c9d3dc" stroke-width="0.7"/>
<circle cx="216.9" cy="60.2" r="2" fill="#ffffff" stroke="#c9d3dc" stroke-width="0.7"/>
<circle cx="226.5" cy="60.2" r="2" fill="#ffffff" stroke="#c9d3dc" stroke-width="0.7"/>
<circle cx="236.2" cy="60.2" r="2" fill="#ffffff" stroke="#c9d3dc" stroke-width="0.7"/>
<circle cx="130" cy="72.6" r="2" fill="#ffffff" stroke="#c9d3dc" stroke-width="0.7"/>
<circle cx="139.7" cy="72.6" r="2" fill="#ffffff" stroke="#c9d3dc" stroke-width="0.7"/>
<circle cx="149.3" cy="72.6" r="2" fill="#ffffff" stroke="#c9d3dc" stroke-width="0.7"/>
<circle cx="159" cy="72.6" r="2" fill="#ffffff" stroke="#c9d3dc" stroke-width="0.7"/>
<circle cx="168.6" cy="72.6" r="2" fill="#ffffff" stroke="#c9d3dc" stroke-width="0.7"/>
<circle cx="197.6" cy="72.6" r="2" fill="#ffffff" stroke="#c9d3dc" stroke-width="0.7"/>
<circle cx="207.2" cy="72.6" r="2" fill="#ffffff" stroke="#c9d3dc" stroke-width="0.7"/>
<circle cx="216.9" cy="72.6" r="2" fill="#ffffff" stroke="#c9d3dc" stroke-width="0.7"/>
<circle cx="226.5" cy="72.6" r="2" fill="#ffffff" stroke="#c9d3dc" stroke-width="0.7"/>
<circle cx="236.2" cy="72.6" r="2" fill="#ffffff" stroke="#c9d3dc" stroke-width="0.7"/>
<circle cx="130" cy="85" r="2" fill="#ffffff" stroke="#c9d3dc" stroke-width="0.7"/>
<circle cx="139.7" cy="85" r="2" fill="#ffffff" stroke="#c9d3dc" stroke-width="0.7"/>
<circle cx="149.3" cy="85" r="2" fill="#ffffff" stroke="#c9d3dc" stroke-width="0.7"/>
<circle cx="159" cy="85" r="2" fill="#ffffff" stroke="#c9d3dc" stroke-width="0.7"/>
<circle cx="168.6" cy="85" r="2" fill="#ffffff" stroke="#c9d3dc" stroke-width="0.7"/>
<circle cx="197.6" cy="85" r="2" fill="#ffffff" stroke="#c9d3dc" stroke-width="0.7"/>
<circle cx="207.2" cy="85" r="2" fill="#ffffff" stroke="#c9d3dc" stroke-width="0.7"/>
<circle cx="216.9" cy="85" r="2" fill="#ffffff" stroke="#c9d3dc" stroke-width="0.7"/>
<circle cx="226.5" cy="85" r="2" fill="#ffffff" stroke="#c9d3dc" stroke-width="0.7"/>
<circle cx="236.2" cy="85" r="2" fill="#ffffff" stroke="#c9d3dc" stroke-width="0.7"/>
<circle cx="130" cy="97.4" r="2" fill="#ffffff" stroke="#c9d3dc" stroke-width="0.7"/>
<circle cx="139.7" cy="97.4" r="2" fill="#ffffff" stroke="#c9d3dc" stroke-width="0.7"/>
<circle cx="149.3" cy="97.4" r="2" fill="#ffffff" stroke="#c9d3dc" stroke-width="0.7"/>
<circle cx="159" cy="97.4" r="2" fill="#ffffff" stroke="#c9d3dc" stroke-width="0.7"/>
<circle cx="168.6" cy="97.4" r="2" fill="#ffffff" stroke="#c9d3dc" stroke-width="0.7"/>
<circle cx="197.6" cy="97.4" r="2" fill="#ffffff" stroke="#c9d3dc" stroke-width="0.7"/>
<circle cx="207.2" cy="97.4" r="2" fill="#ffffff" stroke="#c9d3dc" stroke-width="0.7"/>
<circle cx="216.9" cy="97.4" r="2" fill="#ffffff" stroke="#c9d3dc" stroke-width="0.7"/>
<circle cx="226.5" cy="97.4" r="2" fill="#ffffff" stroke="#c9d3dc" stroke-width="0.7"/>
<circle cx="236.2" cy="97.4" r="2" fill="#ffffff" stroke="#c9d3dc" stroke-width="0.7"/>
<circle cx="130" cy="109.8" r="2" fill="#ffffff" stroke="#c9d3dc" stroke-width="0.7"/>
<circle cx="139.7" cy="109.8" r="2" fill="#ffffff" stroke="#c9d3dc" stroke-width="0.7"/>
<circle cx="149.3" cy="109.8" r="2" fill="#ffffff" stroke="#c9d3dc" stroke-width="0.7"/>
<circle cx="159" cy="109.8" r="2" fill="#ffffff" stroke="#c9d3dc" stroke-width="0.7"/>
<circle cx="168.6" cy="109.8" r="2" fill="#ffffff" stroke="#c9d3dc" stroke-width="0.7"/>
<circle cx="197.6" cy="109.8" r="2" fill="#ffffff" stroke="#c9d3dc" stroke-width="0.7"/>
<circle cx="207.2" cy="109.8" r="2" fill="#ffffff" stroke="#c9d3dc" stroke-width="0.7"/>
<circle cx="216.9" cy="109.8" r="2" fill="#ffffff" stroke="#c9d3dc" stroke-width="0.7"/>
<circle cx="226.5" cy="109.8" r="2" fill="#ffffff" stroke="#c9d3dc" stroke-width="0.7"/>
<circle cx="236.2" cy="109.8" r="2" fill="#ffffff" stroke="#c9d3dc" stroke-width="0.7"/>
<circle cx="130" cy="122.2" r="2" fill="#ffffff" stroke="#c9d3dc" stroke-width="0.7"/>
<circle cx="139.7" cy="122.2" r="2" fill="#ffffff" stroke="#c9d3dc" stroke-width="0.7"/>
<circle cx="149.3" cy="122.2" r="2" fill="#ffffff" stroke="#c9d3dc" stroke-width="0.7"/>
<circle cx="159" cy="122.2" r="2" fill="#ffffff" stroke="#c9d3dc" stroke-width="0.7"/>
<circle cx="168.6" cy="122.2" r="2" fill="#ffffff" stroke="#c9d3dc" stroke-width="0.7"/>
<circle cx="197.6" cy="122.2" r="2" fill="#ffffff" stroke="#c9d3dc" stroke-width="0.7"/>
<circle cx="207.2" cy="122.2" r="2" fill="#ffffff" stroke="#c9d3dc" stroke-width="0.7"/>
<circle cx="216.9" cy="122.2" r="2" fill="#ffffff" stroke="#c9d3dc" stroke-width="0.7"/>
<circle cx="226.5" cy="122.2" r="2" fill="#ffffff" stroke="#c9d3dc" stroke-width="0.7"/>
<circle cx="236.2" cy="122.2" r="2" fill="#ffffff" stroke="#c9d3dc" stroke-width="0.7"/>
<circle cx="130" cy="134.6" r="2" fill="#ffffff" stroke="#c9d3dc" stroke-width="0.7"/>
<circle cx="139.7" cy="134.6" r="2" fill="#ffffff" stroke="#c9d3dc" stroke-width="0.7"/>
<circle cx="149.3" cy="134.6" r="2" fill="#ffffff" stroke="#c9d3dc" stroke-width="0.7"/>
<circle cx="159" cy="134.6" r="2" fill="#ffffff" stroke="#c9d3dc" stroke-width="0.7"/>
<circle cx="168.6" cy="134.6" r="2" fill="#ffffff" stroke="#c9d3dc" stroke-width="0.7"/>
<circle cx="197.6" cy="134.6" r="2" fill="#ffffff" stroke="#c9d3dc" stroke-width="0.7"/>
<circle cx="207.2" cy="134.6" r="2" fill="#ffffff" stroke="#c9d3dc" stroke-width="0.7"/>
<circle cx="216.9" cy="134.6" r="2" fill="#ffffff" stroke="#c9d3dc" stroke-width="0.7"/>
<circle cx="226.5" cy="134.6" r="2" fill="#ffffff" stroke="#c9d3dc" stroke-width="0.7"/>
<circle cx="236.2" cy="134.6" r="2" fill="#ffffff" stroke="#c9d3dc" stroke-width="0.7"/>
<circle cx="130" cy="147" r="2" fill="#ffffff" stroke="#c9d3dc" stroke-width="0.7"/>
<circle cx="139.7" cy="147" r="2" fill="#ffffff" stroke="#c9d3dc" stroke-width="0.7"/>
<circle cx="149.3" cy="147" r="2" fill="#ffffff" stroke="#c9d3dc" stroke-width="0.7"/>
<circle cx="159" cy="147" r="2" fill="#ffffff" stroke="#c9d3dc" stroke-width="0.7"/>
<circle cx="168.6" cy="147" r="2" fill="#ffffff" stroke="#c9d3dc" stroke-width="0.7"/>
<circle cx="197.6" cy="147" r="2" fill="#ffffff" stroke="#c9d3dc" stroke-width="0.7"/>
<circle cx="207.2" cy="147" r="2" fill="#ffffff" stroke="#c9d3dc" stroke-width="0.7"/>
<circle cx="216.9" cy="147" r="2" fill="#ffffff" stroke="#c9d3dc" stroke-width="0.7"/>
<circle cx="226.5" cy="147" r="2" fill="#ffffff" stroke="#c9d3dc" stroke-width="0.7"/>
<circle cx="236.2" cy="147" r="2" fill="#ffffff" stroke="#c9d3dc" stroke-width="0.7"/>
<circle cx="130" cy="159.4" r="2" fill="#ffffff" stroke="#c9d3dc" stroke-width="0.7"/>
<circle cx="139.7" cy="159.4" r="2" fill="#ffffff" stroke="#c9d3dc" stroke-width="0.7"/>
<circle cx="149.3" cy="159.4" r="2" fill="#ffffff" stroke="#c9d3dc" stroke-width="0.7"/>
<circle cx="159" cy="159.4" r="2" fill="#ffffff" stroke="#c9d3dc" stroke-width="0.7"/>
<circle cx="168.6" cy="159.4" r="2" fill="#ffffff" stroke="#c9d3dc" stroke-width="0.7"/>
<circle cx="197.6" cy="159.4" r="2" fill="#ffffff" stroke="#c9d3dc" stroke-width="0.7"/>
<circle cx="207.2" cy="159.4" r="2" fill="#ffffff" stroke="#c9d3dc" stroke-width="0.7"/>
<circle cx="216.9" cy="159.4" r="2" fill="#ffffff" stroke="#c9d3dc" stroke-width="0.7"/>
<circle cx="226.5" cy="159.4" r="2" fill="#ffffff" stroke="#c9d3dc" stroke-width="0.7"/>
<circle cx="236.2" cy="159.4" r="2" fill="#ffffff" stroke="#c9d3dc" stroke-width="0.7"/>
<circle cx="130" cy="171.8" r="2" fill="#ffffff" stroke="#c9d3dc" stroke-width="0.7"/>
<circle cx="139.7" cy="171.8" r="2" fill="#ffffff" stroke="#c9d3dc" stroke-width="0.7"/>
<circle cx="149.3" cy="171.8" r="2" fill="#ffffff" stroke="#c9d3dc" stroke-width="0.7"/>
<circle cx="159" cy="171.8" r="2" fill="#ffffff" stroke="#c9d3dc" stroke-width="0.7"/>
<circle cx="168.6" cy="171.8" r="2" fill="#ffffff" stroke="#c9d3dc" stroke-width="0.7"/>
<circle cx="197.6" cy="171.8" r="2" fill="#ffffff" stroke="#c9d3dc" stroke-width="0.7"/>
<circle cx="207.2" cy="171.8" r="2" fill="#ffffff" stroke="#c9d3dc" stroke-width="0.7"/>
<circle cx="216.9" cy="171.8" r="2" fill="#ffffff" stroke="#c9d3dc" stroke-width="0.7"/>
<circle cx="226.5" cy="171.8" r="2" fill="#ffffff" stroke="#c9d3dc" stroke-width="0.7"/>
<circle cx="236.2" cy="171.8" r="2" fill="#ffffff" stroke="#c9d3dc" stroke-width="0.7"/>
<circle cx="130" cy="184.2" r="2" fill="#ffffff" stroke="#c9d3dc" stroke-width="0.7"/>
<circle cx="139.7" cy="184.2" r="2" fill="#ffffff" stroke="#c9d3dc" stroke-width="0.7"/>
<circle cx="149.3" cy="184.2" r="2" fill="#ffffff" stroke="#c9d3dc" stroke-width="0.7"/>
<circle cx="159" cy="184.2" r="2" fill="#ffffff" stroke="#c9d3dc" stroke-width="0.7"/>
<circle cx="168.6" cy="184.2" r="2" fill="#ffffff" stroke="#c9d3dc" stroke-width="0.7"/>
<circle cx="197.6" cy="184.2" r="2" fill="#ffffff" stroke="#c9d3dc" stroke-width="0.7"/>
<circle cx="207.2" cy="184.2" r="2" fill="#ffffff" stroke="#c9d3dc" stroke-width="0.7"/>
<circle cx="216.9" cy="184.2" r="2" fill="#ffffff" stroke="#c9d3dc" stroke-width="0.7"/>
<circle cx="226.5" cy="184.2" r="2" fill="#ffffff" stroke="#c9d3dc" stroke-width="0.7"/>
<circle cx="236.2" cy="184.2" r="2" fill="#ffffff" stroke="#c9d3dc" stroke-width="0.7"/>
<circle cx="130" cy="196.6" r="2" fill="#ffffff" stroke="#c9d3dc" stroke-width="0.7"/>
<circle cx="139.7" cy="196.6" r="2" fill="#ffffff" stroke="#c9d3dc" stroke-width="0.7"/>
<circle cx="149.3" cy="196.6" r="2" fill="#ffffff" stroke="#c9d3dc" stroke-width="0.7"/>
<circle cx="159" cy="196.6" r="2" fill="#ffffff" stroke="#c9d3dc" stroke-width="0.7"/>
<circle cx="168.6" cy="196.6" r="2" fill="#ffffff" stroke="#c9d3dc" stroke-width="0.7"/>
<circle cx="197.6" cy="196.6" r="2" fill="#ffffff" stroke="#c9d3dc" stroke-width="0.7"/>
<circle cx="207.2" cy="196.6" r="2" fill="#ffffff" stroke="#c9d3dc" stroke-width="0.7"/>
<circle cx="216.9" cy="196.6" r="2" fill="#ffffff" stroke="#c9d3dc" stroke-width="0.7"/>
<circle cx="226.5" cy="196.6" r="2" fill="#ffffff" stroke="#c9d3dc" stroke-width="0.7"/>
<circle cx="236.2" cy="196.6" r="2" fill="#ffffff" stroke="#c9d3dc" stroke-width="0.7"/>
<circle cx="130" cy="209" r="2" fill="#ffffff" stroke="#c9d3dc" stroke-width="0.7"/>
<circle cx="139.7" cy="209" r="2" fill="#ffffff" stroke="#c9d3dc" stroke-width="0.7"/>
<circle cx="149.3" cy="209" r="2" fill="#ffffff" stroke="#c9d3dc" stroke-width="0.7"/>
<circle cx="159" cy="209" r="2" fill="#ffffff" stroke="#c9d3dc" stroke-width="0.7"/>
<circle cx="168.6" cy="209" r="2" fill="#ffffff" stroke="#c9d3dc" stroke-width="0.7"/>
<circle cx="197.6" cy="209" r="2" fill="#ffffff" stroke="#c9d3dc" stroke-width="0.7"/>
<circle cx="207.2" cy="209" r="2" fill="#ffffff" stroke="#c9d3dc" stroke-width="0.7"/>
<circle cx="216.9" cy="209" r="2" fill="#ffffff" stroke="#c9d3dc" stroke-width="0.7"/>
<circle cx="226.5" cy="209" r="2" fill="#ffffff" stroke="#c9d3dc" stroke-width="0.7"/>
<circle cx="236.2" cy="209" r="2" fill="#ffffff" stroke="#c9d3dc" stroke-width="0.7"/>
<circle cx="130" cy="221.4" r="2" fill="#ffffff" stroke="#c9d3dc" stroke-width="0.7"/>
<circle cx="139.7" cy="221.4" r="2" fill="#ffffff" stroke="#c9d3dc" stroke-width="0.7"/>
<circle cx="149.3" cy="221.4" r="2" fill="#ffffff" stroke="#c9d3dc" stroke-width="0.7"/>
<circle cx="159" cy="221.4" r="2" fill="#ffffff" stroke="#c9d3dc" stroke-width="0.7"/>
<circle cx="168.6" cy="221.4" r="2" fill="#ffffff" stroke="#c9d3dc" stroke-width="0.7"/>
<circle cx="197.6" cy="221.4" r="2" fill="#ffffff" stroke="#c9d3dc" stroke-width="0.7"/>
<circle cx="207.2" cy="221.4" r="2" fill="#ffffff" stroke="#c9d3dc" stroke-width="0.7"/>
<circle cx="216.9" cy="221.4" r="2" fill="#ffffff" stroke="#c9d3dc" stroke-width="0.7"/>
<circle cx="226.5" cy="221.4" r="2" fill="#ffffff" stroke="#c9d3dc" stroke-width="0.7"/>
<circle cx="236.2" cy="221.4" r="2" fill="#ffffff" stroke="#c9d3dc" stroke-width="0.7"/>
<circle cx="130" cy="233.8" r="2" fill="#ffffff" stroke="#c9d3dc" stroke-width="0.7"/>
<circle cx="139.7" cy="233.8" r="2" fill="#ffffff" stroke="#c9d3dc" stroke-width="0.7"/>
<circle cx="149.3" cy="233.8" r="2" fill="#ffffff" stroke="#c9d3dc" stroke-width="0.7"/>
<circle cx="159" cy="233.8" r="2" fill="#ffffff" stroke="#c9d3dc" stroke-width="0.7"/>
<circle cx="168.6" cy="233.8" r="2" fill="#ffffff" stroke="#c9d3dc" stroke-width="0.7"/>
<circle cx="197.6" cy="233.8" r="2" fill="#ffffff" stroke="#c9d3dc" stroke-width="0.7"/>
<circle cx="207.2" cy="233.8" r="2" fill="#ffffff" stroke="#c9d3dc" stroke-width="0.7"/>
<circle cx="216.9" cy="233.8" r="2" fill="#ffffff" stroke="#c9d3dc" stroke-width="0.7"/>
<circle cx="226.5" cy="233.8" r="2" fill="#ffffff" stroke="#c9d3dc" stroke-width="0.7"/>
<circle cx="236.2" cy="233.8" r="2" fill="#ffffff" stroke="#c9d3dc" stroke-width="0.7"/>
<circle cx="130" cy="246.2" r="2" fill="#ffffff" stroke="#c9d3dc" stroke-width="0.7"/>
<circle cx="139.7" cy="246.2" r="2" fill="#ffffff" stroke="#c9d3dc" stroke-width="0.7"/>
<circle cx="149.3" cy="246.2" r="2" fill="#ffffff" stroke="#c9d3dc" stroke-width="0.7"/>
<circle cx="159" cy="246.2" r="2" fill="#ffffff" stroke="#c9d3dc" stroke-width="0.7"/>
<circle cx="168.6" cy="246.2" r="2" fill="#ffffff" stroke="#c9d3dc" stroke-width="0.7"/>
<circle cx="197.6" cy="246.2" r="2" fill="#ffffff" stroke="#c9d3dc" stroke-width="0.7"/>
<circle cx="207.2" cy="246.2" r="2" fill="#ffffff" stroke="#c9d3dc" stroke-width="0.7"/>
<circle cx="216.9" cy="246.2" r="2" fill="#ffffff" stroke="#c9d3dc" stroke-width="0.7"/>
<circle cx="226.5" cy="246.2" r="2" fill="#ffffff" stroke="#c9d3dc" stroke-width="0.7"/>
<circle cx="236.2" cy="246.2" r="2" fill="#ffffff" stroke="#c9d3dc" stroke-width="0.7"/>
<circle cx="130" cy="258.6" r="2" fill="#ffffff" stroke="#c9d3dc" stroke-width="0.7"/>
<circle cx="139.7" cy="258.6" r="2" fill="#ffffff" stroke="#c9d3dc" stroke-width="0.7"/>
<circle cx="149.3" cy="258.6" r="2" fill="#ffffff" stroke="#c9d3dc" stroke-width="0.7"/>
<circle cx="159" cy="258.6" r="2" fill="#ffffff" stroke="#c9d3dc" stroke-width="0.7"/>
<circle cx="168.6" cy="258.6" r="2" fill="#ffffff" stroke="#c9d3dc" stroke-width="0.7"/>
<circle cx="197.6" cy="258.6" r="2" fill="#ffffff" stroke="#c9d3dc" stroke-width="0.7"/>
<circle cx="207.2" cy="258.6" r="2" fill="#ffffff" stroke="#c9d3dc" stroke-width="0.7"/>
<circle cx="216.9" cy="258.6" r="2" fill="#ffffff" stroke="#c9d3dc" stroke-width="0.7"/>
<circle cx="226.5" cy="258.6" r="2" fill="#ffffff" stroke="#c9d3dc" stroke-width="0.7"/>
<circle cx="236.2" cy="258.6" r="2" fill="#ffffff" stroke="#c9d3dc" stroke-width="0.7"/>
<circle cx="130" cy="271" r="2" fill="#ffffff" stroke="#c9d3dc" stroke-width="0.7"/>
<circle cx="139.7" cy="271" r="2" fill="#ffffff" stroke="#c9d3dc" stroke-width="0.7"/>
<circle cx="149.3" cy="271" r="2" fill="#ffffff" stroke="#c9d3dc" stroke-width="0.7"/>
<circle cx="159" cy="271" r="2" fill="#ffffff" stroke="#c9d3dc" stroke-width="0.7"/>
<circle cx="168.6" cy="271" r="2" fill="#ffffff" stroke="#c9d3dc" stroke-width="0.7"/>
<circle cx="197.6" cy="271" r="2" fill="#ffffff" stroke="#c9d3dc" stroke-width="0.7"/>
<circle cx="207.2" cy="271" r="2" fill="#ffffff" stroke="#c9d3dc" stroke-width="0.7"/>
<circle cx="216.9" cy="271" r="2" fill="#ffffff" stroke="#c9d3dc" stroke-width="0.7"/>
<circle cx="226.5" cy="271" r="2" fill="#ffffff" stroke="#c9d3dc" stroke-width="0.7"/>
<circle cx="236.2" cy="271" r="2" fill="#ffffff" stroke="#c9d3dc" stroke-width="0.7"/>
<circle cx="130" cy="283.4" r="2" fill="#ffffff" stroke="#c9d3dc" stroke-width="0.7"/>
<circle cx="139.7" cy="283.4" r="2" fill="#ffffff" stroke="#c9d3dc" stroke-width="0.7"/>
<circle cx="149.3" cy="283.4" r="2" fill="#ffffff" stroke="#c9d3dc" stroke-width="0.7"/>
<circle cx="159" cy="283.4" r="2" fill="#ffffff" stroke="#c9d3dc" stroke-width="0.7"/>
<circle cx="168.6" cy="283.4" r="2" fill="#ffffff" stroke="#c9d3dc" stroke-width="0.7"/>
<circle cx="197.6" cy="283.4" r="2" fill="#ffffff" stroke="#c9d3dc" stroke-width="0.7"/>
<circle cx="207.2" cy="283.4" r="2" fill="#ffffff" stroke="#c9d3dc" stroke-width="0.7"/>
<circle cx="216.9" cy="283.4" r="2" fill="#ffffff" stroke="#c9d3dc" stroke-width="0.7"/>
<circle cx="226.5" cy="283.4" r="2" fill="#ffffff" stroke="#c9d3dc" stroke-width="0.7"/>
<circle cx="236.2" cy="283.4" r="2" fill="#ffffff" stroke="#c9d3dc" stroke-width="0.7"/>
<circle cx="130" cy="295.8" r="2" fill="#ffffff" stroke="#c9d3dc" stroke-width="0.7"/>
<circle cx="139.7" cy="295.8" r="2" fill="#ffffff" stroke="#c9d3dc" stroke-width="0.7"/>
<circle cx="149.3" cy="295.8" r="2" fill="#ffffff" stroke="#c9d3dc" stroke-width="0.7"/>
<circle cx="159" cy="295.8" r="2" fill="#ffffff" stroke="#c9d3dc" stroke-width="0.7"/>
<circle cx="168.6" cy="295.8" r="2" fill="#ffffff" stroke="#c9d3dc" stroke-width="0.7"/>
<circle cx="197.6" cy="295.8" r="2" fill="#ffffff" stroke="#c9d3dc" stroke-width="0.7"/>
<circle cx="207.2" cy="295.8" r="2" fill="#ffffff" stroke="#c9d3dc" stroke-width="0.7"/>
<circle cx="216.9" cy="295.8" r="2" fill="#ffffff" stroke="#c9d3dc" stroke-width="0.7"/>
<circle cx="226.5" cy="295.8" r="2" fill="#ffffff" stroke="#c9d3dc" stroke-width="0.7"/>
<circle cx="236.2" cy="295.8" r="2" fill="#ffffff" stroke="#c9d3dc" stroke-width="0.7"/>
<circle cx="130" cy="308.2" r="2" fill="#ffffff" stroke="#c9d3dc" stroke-width="0.7"/>
<circle cx="139.7" cy="308.2" r="2" fill="#ffffff" stroke="#c9d3dc" stroke-width="0.7"/>
<circle cx="149.3" cy="308.2" r="2" fill="#ffffff" stroke="#c9d3dc" stroke-width="0.7"/>
<circle cx="159" cy="308.2" r="2" fill="#ffffff" stroke="#c9d3dc" stroke-width="0.7"/>
<circle cx="168.6" cy="308.2" r="2" fill="#ffffff" stroke="#c9d3dc" stroke-width="0.7"/>
<circle cx="197.6" cy="308.2" r="2" fill="#ffffff" stroke="#c9d3dc" stroke-width="0.7"/>
<circle cx="207.2" cy="308.2" r="2" fill="#ffffff" stroke="#c9d3dc" stroke-width="0.7"/>
<circle cx="216.9" cy="308.2" r="2" fill="#ffffff" stroke="#c9d3dc" stroke-width="0.7"/>
<circle cx="226.5" cy="308.2" r="2" fill="#ffffff" stroke="#c9d3dc" stroke-width="0.7"/>
<circle cx="236.2" cy="308.2" r="2" fill="#ffffff" stroke="#c9d3dc" stroke-width="0.7"/>
<circle cx="130" cy="320.6" r="2" fill="#ffffff" stroke="#c9d3dc" stroke-width="0.7"/>
<circle cx="139.7" cy="320.6" r="2" fill="#ffffff" stroke="#c9d3dc" stroke-width="0.7"/>
<circle cx="149.3" cy="320.6" r="2" fill="#ffffff" stroke="#c9d3dc" stroke-width="0.7"/>
<circle cx="159" cy="320.6" r="2" fill="#ffffff" stroke="#c9d3dc" stroke-width="0.7"/>
<circle cx="168.6" cy="320.6" r="2" fill="#ffffff" stroke="#c9d3dc" stroke-width="0.7"/>
<circle cx="197.6" cy="320.6" r="2" fill="#ffffff" stroke="#c9d3dc" stroke-width="0.7"/>
<circle cx="207.2" cy="320.6" r="2" fill="#ffffff" stroke="#c9d3dc" stroke-width="0.7"/>
<circle cx="216.9" cy="320.6" r="2" fill="#ffffff" stroke="#c9d3dc" stroke-width="0.7"/>
<circle cx="226.5" cy="320.6" r="2" fill="#ffffff" stroke="#c9d3dc" stroke-width="0.7"/>
<circle cx="236.2" cy="320.6" r="2" fill="#ffffff" stroke="#c9d3dc" stroke-width="0.7"/>
<circle cx="130" cy="333" r="2" fill="#ffffff" stroke="#c9d3dc" stroke-width="0.7"/>
<circle cx="139.7" cy="333" r="2" fill="#ffffff" stroke="#c9d3dc" stroke-width="0.7"/>
<circle cx="149.3" cy="333" r="2" fill="#ffffff" stroke="#c9d3dc" stroke-width="0.7"/>
<circle cx="159" cy="333" r="2" fill="#ffffff" stroke="#c9d3dc" stroke-width="0.7"/>
<circle cx="168.6" cy="333" r="2" fill="#ffffff" stroke="#c9d3dc" stroke-width="0.7"/>
<circle cx="197.6" cy="333" r="2" fill="#ffffff" stroke="#c9d3dc" stroke-width="0.7"/>
<circle cx="207.2" cy="333" r="2" fill="#ffffff" stroke="#c9d3dc" stroke-width="0.7"/>
<circle cx="216.9" cy="333" r="2" fill="#ffffff" stroke="#c9d3dc" stroke-width="0.7"/>
<circle cx="226.5" cy="333" r="2" fill="#ffffff" stroke="#c9d3dc" stroke-width="0.7"/>
<circle cx="236.2" cy="333" r="2" fill="#ffffff" stroke="#c9d3dc" stroke-width="0.7"/>
<circle cx="130" cy="345.4" r="2" fill="#ffffff" stroke="#c9d3dc" stroke-width="0.7"/>
<circle cx="139.7" cy="345.4" r="2" fill="#ffffff" stroke="#c9d3dc" stroke-width="0.7"/>
<circle cx="149.3" cy="345.4" r="2" fill="#ffffff" stroke="#c9d3dc" stroke-width="0.7"/>
<circle cx="159" cy="345.4" r="2" fill="#ffffff" stroke="#c9d3dc" stroke-width="0.7"/>
<circle cx="168.6" cy="345.4" r="2" fill="#ffffff" stroke="#c9d3dc" stroke-width="0.7"/>
<circle cx="197.6" cy="345.4" r="2" fill="#ffffff" stroke="#c9d3dc" stroke-width="0.7"/>
<circle cx="207.2" cy="345.4" r="2" fill="#ffffff" stroke="#c9d3dc" stroke-width="0.7"/>
<circle cx="216.9" cy="345.4" r="2" fill="#ffffff" stroke="#c9d3dc" stroke-width="0.7"/>
<circle cx="226.5" cy="345.4" r="2" fill="#ffffff" stroke="#c9d3dc" stroke-width="0.7"/>
<circle cx="236.2" cy="345.4" r="2" fill="#ffffff" stroke="#c9d3dc" stroke-width="0.7"/>
<circle cx="130" cy="357.8" r="2" fill="#ffffff" stroke="#c9d3dc" stroke-width="0.7"/>
<circle cx="139.7" cy="357.8" r="2" fill="#ffffff" stroke="#c9d3dc" stroke-width="0.7"/>
<circle cx="149.3" cy="357.8" r="2" fill="#ffffff" stroke="#c9d3dc" stroke-width="0.7"/>
<circle cx="159" cy="357.8" r="2" fill="#ffffff" stroke="#c9d3dc" stroke-width="0.7"/>
<circle cx="168.6" cy="357.8" r="2" fill="#ffffff" stroke="#c9d3dc" stroke-width="0.7"/>
<circle cx="197.6" cy="357.8" r="2" fill="#ffffff" stroke="#c9d3dc" stroke-width="0.7"/>
<circle cx="207.2" cy="357.8" r="2" fill="#ffffff" stroke="#c9d3dc" stroke-width="0.7"/>
<circle cx="216.9" cy="357.8" r="2" fill="#ffffff" stroke="#c9d3dc" stroke-width="0.7"/>
<circle cx="226.5" cy="357.8" r="2" fill="#ffffff" stroke="#c9d3dc" stroke-width="0.7"/>
<circle cx="236.2" cy="357.8" r="2" fill="#ffffff" stroke="#c9d3dc" stroke-width="0.7"/>
<circle cx="130" cy="370.2" r="2" fill="#ffffff" stroke="#c9d3dc" stroke-width="0.7"/>
<circle cx="139.7" cy="370.2" r="2" fill="#ffffff" stroke="#c9d3dc" stroke-width="0.7"/>
<circle cx="149.3" cy="370.2" r="2" fill="#ffffff" stroke="#c9d3dc" stroke-width="0.7"/>
<circle cx="159" cy="370.2" r="2" fill="#ffffff" stroke="#c9d3dc" stroke-width="0.7"/>
<circle cx="168.6" cy="370.2" r="2" fill="#ffffff" stroke="#c9d3dc" stroke-width="0.7"/>
<circle cx="197.6" cy="370.2" r="2" fill="#ffffff" stroke="#c9d3dc" stroke-width="0.7"/>
<circle cx="207.2" cy="370.2" r="2" fill="#ffffff" stroke="#c9d3dc" stroke-width="0.7"/>
<circle cx="216.9" cy="370.2" r="2" fill="#ffffff" stroke="#c9d3dc" stroke-width="0.7"/>
<circle cx="226.5" cy="370.2" r="2" fill="#ffffff" stroke="#c9d3dc" stroke-width="0.7"/>
<circle cx="236.2" cy="370.2" r="2" fill="#ffffff" stroke="#c9d3dc" stroke-width="0.7"/>
<circle cx="130" cy="382.6" r="2" fill="#ffffff" stroke="#c9d3dc" stroke-width="0.7"/>
<circle cx="139.7" cy="382.6" r="2" fill="#ffffff" stroke="#c9d3dc" stroke-width="0.7"/>
<circle cx="149.3" cy="382.6" r="2" fill="#ffffff" stroke="#c9d3dc" stroke-width="0.7"/>
<circle cx="159" cy="382.6" r="2" fill="#ffffff" stroke="#c9d3dc" stroke-width="0.7"/>
<circle cx="168.6" cy="382.6" r="2" fill="#ffffff" stroke="#c9d3dc" stroke-width="0.7"/>
<circle cx="197.6" cy="382.6" r="2" fill="#ffffff" stroke="#c9d3dc" stroke-width="0.7"/>
<circle cx="207.2" cy="382.6" r="2" fill="#ffffff" stroke="#c9d3dc" stroke-width="0.7"/>
<circle cx="216.9" cy="382.6" r="2" fill="#ffffff" stroke="#c9d3dc" stroke-width="0.7"/>
<circle cx="226.5" cy="382.6" r="2" fill="#ffffff" stroke="#c9d3dc" stroke-width="0.7"/>
<circle cx="236.2" cy="382.6" r="2" fill="#ffffff" stroke="#c9d3dc" stroke-width="0.7"/>
<circle cx="130" cy="395" r="2" fill="#ffffff" stroke="#c9d3dc" stroke-width="0.7"/>
<circle cx="139.7" cy="395" r="2" fill="#ffffff" stroke="#c9d3dc" stroke-width="0.7"/>
<circle cx="149.3" cy="395" r="2" fill="#ffffff" stroke="#c9d3dc" stroke-width="0.7"/>
<circle cx="159" cy="395" r="2" fill="#ffffff" stroke="#c9d3dc" stroke-width="0.7"/>
<circle cx="168.6" cy="395" r="2" fill="#ffffff" stroke="#c9d3dc" stroke-width="0.7"/>
<circle cx="197.6" cy="395" r="2" fill="#ffffff" stroke="#c9d3dc" stroke-width="0.7"/>
<circle cx="207.2" cy="395" r="2" fill="#ffffff" stroke="#c9d3dc" stroke-width="0.7"/>
<circle cx="216.9" cy="395" r="2" fill="#ffffff" stroke="#c9d3dc" stroke-width="0.7"/>
<circle cx="226.5" cy="395" r="2" fill="#ffffff" stroke="#c9d3dc" stroke-width="0.7"/>
<circle cx="236.2" cy="395" r="2" fill="#ffffff" stroke="#c9d3dc" stroke-width="0.7"/>
<circle cx="130" cy="407.4" r="2" fill="#ffffff" stroke="#c9d3dc" stroke-width="0.7"/>
<circle cx="139.7" cy="407.4" r="2" fill="#ffffff" stroke="#c9d3dc" stroke-width="0.7"/>
<circle cx="149.3" cy="407.4" r="2" fill="#ffffff" stroke="#c9d3dc" stroke-width="0.7"/>
<circle cx="159" cy="407.4" r="2" fill="#ffffff" stroke="#c9d3dc" stroke-width="0.7"/>
<circle cx="168.6" cy="407.4" r="2" fill="#ffffff" stroke="#c9d3dc" stroke-width="0.7"/>
<circle cx="197.6" cy="407.4" r="2" fill="#ffffff" stroke="#c9d3dc" stroke-width="0.7"/>
<circle cx="207.2" cy="407.4" r="2" fill="#ffffff" stroke="#c9d3dc" stroke-width="0.7"/>
<circle cx="216.9" cy="407.4" r="2" fill="#ffffff" stroke="#c9d3dc" stroke-width="0.7"/>
<circle cx="226.5" cy="407.4" r="2" fill="#ffffff" stroke="#c9d3dc" stroke-width="0.7"/>
<circle cx="236.2" cy="407.4" r="2" fill="#ffffff" stroke="#c9d3dc" stroke-width="0.7"/>
<path d="M84 422.8L84 29.8" fill="none" stroke="#222222" stroke-width="2" data-kablo=""/>
<path d="M30 345.4L84 345.4" fill="none" stroke="#222222" stroke-width="2.2" data-kablo=""/>
<circle cx="30" cy="345.4" r="2.5" fill="#1f2d3d"/>
<circle cx="84" cy="345.4" r="2.5" fill="#1f2d3d"/>
<path d="M30 60.2L130 60.2" fill="none" stroke="#e0a800" stroke-width="2.2"/>
<circle cx="30" cy="60.2" r="2.5" fill="#1f2d3d"/>
<circle cx="130" cy="60.2" r="2.5" fill="#1f2d3d"/>
<path d="M130 122.2L84 122.2" fill="none" stroke="#222222" stroke-width="2.2" data-kablo=""/>
<circle cx="130" cy="122.2" r="2.5" fill="#1f2d3d"/>
<circle cx="84" cy="122.2" r="2.5" fill="#1f2d3d"/>
<path d="M149.3 60.2L149.3 109.8" fill="none" stroke="#5b6b7a" stroke-width="1.3"/>
<rect x="145.3" y="69.2" width="8" height="31.6" rx="2" fill="#fff3dc" stroke="#0f2a4a" stroke-width="1.3"/>
<path d="M168.6 109.8L168.6 122.2" fill="none" stroke="#5b6b7a" stroke-width="1.3"/>
<circle cx="173.6" cy="116" r="4.3" fill="#c62828" stroke="#0f2a4a" stroke-width="1.3"/>
<rect x="111" y="43" width="13" height="9.4" fill="#f4f7fa"/>
<rect x="111" y="55.4" width="13" height="9.4" fill="#f4f7fa"/>
<rect x="111" y="67.8" width="13" height="9.4" fill="#f4f7fa"/>
<rect x="111" y="80.2" width="13" height="9.4" fill="#f4f7fa"/>
<rect x="111" y="92.6" width="13" height="9.4" fill="#f4f7fa"/>
<rect x="111" y="105" width="13" height="9.4" fill="#f4f7fa"/>
<rect x="111" y="117.4" width="13" height="9.4" fill="#f4f7fa"/>
<rect x="111" y="129.8" width="13" height="9.4" fill="#f4f7fa"/>
<rect x="111" y="142.2" width="13" height="9.4" fill="#f4f7fa"/>
<rect x="111" y="154.6" width="13" height="9.4" fill="#f4f7fa"/>
<rect x="111" y="167" width="13" height="9.4" fill="#f4f7fa"/>
<rect x="111" y="179.4" width="13" height="9.4" fill="#f4f7fa"/>
<rect x="111" y="191.8" width="13" height="9.4" fill="#f4f7fa"/>
<rect x="111" y="204.2" width="13" height="9.4" fill="#f4f7fa"/>
<rect x="111" y="216.6" width="13" height="9.4" fill="#f4f7fa"/>
<rect x="111" y="229" width="13" height="9.4" fill="#f4f7fa"/>
<rect x="111" y="241.4" width="13" height="9.4" fill="#f4f7fa"/>
<rect x="111" y="253.8" width="13" height="9.4" fill="#f4f7fa"/>
<rect x="111" y="266.2" width="13" height="9.4" fill="#f4f7fa"/>
<rect x="111" y="278.6" width="13" height="9.4" fill="#f4f7fa"/>
<rect x="111" y="291" width="13" height="9.4" fill="#f4f7fa"/>
<rect x="111" y="303.4" width="13" height="9.4" fill="#f4f7fa"/>
<rect x="111" y="315.8" width="13" height="9.4" fill="#f4f7fa"/>
<rect x="111" y="328.2" width="13" height="9.4" fill="#f4f7fa"/>
<rect x="111" y="340.6" width="13" height="9.4" fill="#f4f7fa"/>
<rect x="111" y="353" width="13" height="9.4" fill="#f4f7fa"/>
<rect x="111" y="365.4" width="13" height="9.4" fill="#f4f7fa"/>
<rect x="111" y="377.8" width="13" height="9.4" fill="#f4f7fa"/>
<rect x="111" y="390.2" width="13" height="9.4" fill="#f4f7fa"/>
<rect x="111" y="402.6" width="13" height="9.4" fill="#f4f7fa"/>
<text x="127.6" y="27.8" font-size="8.6" fill="#5b6b79" textLength="43.4" lengthAdjust="spacingAndGlyphs">a b c d e</text>
<text x="196.4" y="27.8" font-size="8.6" fill="#5b6b79" textLength="31.1" lengthAdjust="spacingAndGlyphs">f g h i</text>
<text x="235.2" y="27.8" font-size="8.6" fill="#5b6b79" textLength="1.9" lengthAdjust="spacingAndGlyphs">j</text>
<text x="113" y="12.8" font-size="8.6" fill="#5b6b79" textLength="14.3" lengthAdjust="spacingAndGlyphs">a–e</text>
<text x="197" y="12.8" font-size="8.6" fill="#5b6b79" textLength="9.1" lengthAdjust="spacingAndGlyphs">f–j</text>
<text x="28" y="11.8" font-size="8.6" fill="#1f2d3d" font-weight="bold" textLength="19.1" lengthAdjust="spacingAndGlyphs">UNO</text>
<text x="41" y="436.8" font-size="8.6" fill="#1f2d3d" font-weight="bold" textLength="36.8" lengthAdjust="spacingAndGlyphs">GND rayı</text>
<text x="14" y="51.2" font-size="9.4" fill="#1f2d3d" font-weight="bold" textLength="12" lengthAdjust="spacingAndGlyphs">D8</text>
<text x="14" y="336.4" font-size="9.4" fill="#1f2d3d" font-weight="bold" textLength="20.9" lengthAdjust="spacingAndGlyphs">GND</text>
<text x="117.2" y="50.8" font-size="8.6" fill="#5b6b79" textLength="4.8" lengthAdjust="spacingAndGlyphs">1</text>
<text x="117.2" y="63.2" font-size="8.6" fill="#5b6b79" textLength="4.8" lengthAdjust="spacingAndGlyphs">2</text>
<text x="117.2" y="75.6" font-size="8.6" fill="#5b6b79" textLength="4.8" lengthAdjust="spacingAndGlyphs">3</text>
<text x="117.2" y="88" font-size="8.6" fill="#5b6b79" textLength="4.8" lengthAdjust="spacingAndGlyphs">4</text>
<text x="117.2" y="100.4" font-size="8.6" fill="#5b6b79" textLength="4.8" lengthAdjust="spacingAndGlyphs">5</text>
<text x="117.2" y="112.8" font-size="8.6" fill="#5b6b79" textLength="4.8" lengthAdjust="spacingAndGlyphs">6</text>
<text x="117.2" y="125.2" font-size="8.6" fill="#5b6b79" textLength="4.8" lengthAdjust="spacingAndGlyphs">7</text>
<text x="117.2" y="137.6" font-size="8.6" fill="#5b6b79" textLength="4.8" lengthAdjust="spacingAndGlyphs">8</text>
<text x="117.2" y="150" font-size="8.6" fill="#5b6b79" textLength="4.8" lengthAdjust="spacingAndGlyphs">9</text>
<text x="112.4" y="162.4" font-size="8.6" fill="#5b6b79" textLength="9.6" lengthAdjust="spacingAndGlyphs">10</text>
<text x="112.4" y="174.8" font-size="8.6" fill="#5b6b79" textLength="9.6" lengthAdjust="spacingAndGlyphs">11</text>
<text x="112.4" y="187.2" font-size="8.6" fill="#5b6b79" textLength="9.6" lengthAdjust="spacingAndGlyphs">12</text>
<text x="112.4" y="199.6" font-size="8.6" fill="#5b6b79" textLength="9.6" lengthAdjust="spacingAndGlyphs">13</text>
<text x="112.4" y="212" font-size="8.6" fill="#5b6b79" textLength="9.6" lengthAdjust="spacingAndGlyphs">14</text>
<text x="112.4" y="224.4" font-size="8.6" fill="#5b6b79" textLength="9.6" lengthAdjust="spacingAndGlyphs">15</text>
<text x="112.4" y="236.8" font-size="8.6" fill="#5b6b79" textLength="9.6" lengthAdjust="spacingAndGlyphs">16</text>
<text x="112.4" y="249.2" font-size="8.6" fill="#5b6b79" textLength="9.6" lengthAdjust="spacingAndGlyphs">17</text>
<text x="112.4" y="261.6" font-size="8.6" fill="#5b6b79" textLength="9.6" lengthAdjust="spacingAndGlyphs">18</text>
<text x="112.4" y="274" font-size="8.6" fill="#5b6b79" textLength="9.6" lengthAdjust="spacingAndGlyphs">19</text>
<text x="112.4" y="286.4" font-size="8.6" fill="#5b6b79" textLength="9.6" lengthAdjust="spacingAndGlyphs">20</text>
<text x="112.4" y="298.8" font-size="8.6" fill="#5b6b79" textLength="9.6" lengthAdjust="spacingAndGlyphs">21</text>
<text x="112.4" y="311.2" font-size="8.6" fill="#5b6b79" textLength="9.6" lengthAdjust="spacingAndGlyphs">22</text>
<text x="112.4" y="323.6" font-size="8.6" fill="#5b6b79" textLength="9.6" lengthAdjust="spacingAndGlyphs">23</text>
<text x="112.4" y="336" font-size="8.6" fill="#5b6b79" textLength="9.6" lengthAdjust="spacingAndGlyphs">24</text>
<text x="112.4" y="348.4" font-size="8.6" fill="#5b6b79" textLength="9.6" lengthAdjust="spacingAndGlyphs">25</text>
<text x="112.4" y="360.8" font-size="8.6" fill="#5b6b79" textLength="9.6" lengthAdjust="spacingAndGlyphs">26</text>
<text x="112.4" y="373.2" font-size="8.6" fill="#5b6b79" textLength="9.6" lengthAdjust="spacingAndGlyphs">27</text>
<text x="112.4" y="385.6" font-size="8.6" fill="#5b6b79" textLength="9.6" lengthAdjust="spacingAndGlyphs">28</text>
<text x="112.4" y="398" font-size="8.6" fill="#5b6b79" textLength="9.6" lengthAdjust="spacingAndGlyphs">29</text>
<text x="112.4" y="410.4" font-size="8.6" fill="#5b6b79" textLength="9.6" lengthAdjust="spacingAndGlyphs">30</text>
<text x="4" y="448.8" font-size="8.6" fill="#5b6b79" textLength="152.5" lengthAdjust="spacingAndGlyphs">Kesişen çizgiler yalnız uçlarında birleşir.</text>
</svg>
