<svg xmlns="http://www.w3.org/2000/svg" viewBox="0 0 279.7 442.5" width="448" height="708" font-family="Arial, Helvetica, sans-serif">
<rect x="109" y="12.5" width="166.7" height="426" rx="6" fill="#f4f7fa" stroke="#c9d3dc" stroke-width="1"/>
<circle cx="130" cy="47.5" r="2" fill="#ffffff" stroke="#c9d3dc" stroke-width="0.7"/>
<circle cx="141.7" cy="47.5" r="2" fill="#ffffff" stroke="#c9d3dc" stroke-width="0.7"/>
<circle cx="153.4" cy="47.5" r="2" fill="#ffffff" stroke="#c9d3dc" stroke-width="0.7"/>
<circle cx="165.1" cy="47.5" r="2" fill="#ffffff" stroke="#c9d3dc" stroke-width="0.7"/>
<circle cx="176.8" cy="47.5" r="2" fill="#ffffff" stroke="#c9d3dc" stroke-width="0.7"/>
<circle cx="211.9" cy="47.5" r="2" fill="#ffffff" stroke="#c9d3dc" stroke-width="0.7"/>
<circle cx="223.6" cy="47.5" r="2" fill="#ffffff" stroke="#c9d3dc" stroke-width="0.7"/>
<circle cx="235.3" cy="47.5" r="2" fill="#ffffff" stroke="#c9d3dc" stroke-width="0.7"/>
<circle cx="247" cy="47.5" r="2" fill="#ffffff" stroke="#c9d3dc" stroke-width="0.7"/>
<circle cx="258.7" cy="47.5" r="2" fill="#ffffff" stroke="#c9d3dc" stroke-width="0.7"/>
<circle cx="130" cy="59.9" r="2" fill="#ffffff" stroke="#c9d3dc" stroke-width="0.7"/>
<circle cx="141.7" cy="59.9" r="2" fill="#ffffff" stroke="#c9d3dc" stroke-width="0.7"/>
<circle cx="153.4" cy="59.9" r="2" fill="#ffffff" stroke="#c9d3dc" stroke-width="0.7"/>
<circle cx="165.1" cy="59.9" r="2" fill="#ffffff" stroke="#c9d3dc" stroke-width="0.7"/>
<circle cx="176.8" cy="59.9" r="2" fill="#ffffff" stroke="#c9d3dc" stroke-width="0.7"/>
<circle cx="211.9" cy="59.9" r="2" fill="#ffffff" stroke="#c9d3dc" stroke-width="0.7"/>
<circle cx="223.6" cy="59.9" r="2" fill="#ffffff" stroke="#c9d3dc" stroke-width="0.7"/>
<circle cx="235.3" cy="59.9" r="2" fill="#ffffff" stroke="#c9d3dc" stroke-width="0.7"/>
<circle cx="247" cy="59.9" r="2" fill="#ffffff" stroke="#c9d3dc" stroke-width="0.7"/>
<circle cx="258.7" cy="59.9" r="2" fill="#ffffff" stroke="#c9d3dc" stroke-width="0.7"/>
<circle cx="130" cy="72.3" r="2" fill="#ffffff" stroke="#c9d3dc" stroke-width="0.7"/>
<circle cx="141.7" cy="72.3" r="2" fill="#ffffff" stroke="#c9d3dc" stroke-width="0.7"/>
<circle cx="153.4" cy="72.3" r="2" fill="#ffffff" stroke="#c9d3dc" stroke-width="0.7"/>
<circle cx="165.1" cy="72.3" r="2" fill="#ffffff" stroke="#c9d3dc" stroke-width="0.7"/>
<circle cx="176.8" cy="72.3" r="2" fill="#ffffff" stroke="#c9d3dc" stroke-width="0.7"/>
<circle cx="211.9" cy="72.3" r="2" fill="#ffffff" stroke="#c9d3dc" stroke-width="0.7"/>
<circle cx="223.6" cy="72.3" r="2" fill="#ffffff" stroke="#c9d3dc" stroke-width="0.7"/>
<circle cx="235.3" cy="72.3" r="2" fill="#ffffff" stroke="#c9d3dc" stroke-width="0.7"/>
<circle cx="247" cy="72.3" r="2" fill="#ffffff" stroke="#c9d3dc" stroke-width="0.7"/>
<circle cx="258.7" cy="72.3" r="2" fill="#ffffff" stroke="#c9d3dc" stroke-width="0.7"/>
<circle cx="130" cy="84.7" r="2" fill="#ffffff" stroke="#c9d3dc" stroke-width="0.7"/>
<circle cx="141.7" cy="84.7" r="2" fill="#ffffff" stroke="#c9d3dc" stroke-width="0.7"/>
<circle cx="153.4" cy="84.7" r="2" fill="#ffffff" stroke="#c9d3dc" stroke-width="0.7"/>
<circle cx="165.1" cy="84.7" r="2" fill="#ffffff" stroke="#c9d3dc" stroke-width="0.7"/>
<circle cx="176.8" cy="84.7" r="2" fill="#ffffff" stroke="#c9d3dc" stroke-width="0.7"/>
<circle cx="211.9" cy="84.7" r="2" fill="#ffffff" stroke="#c9d3dc" stroke-width="0.7"/>
<circle cx="223.6" cy="84.7" r="2" fill="#ffffff" stroke="#c9d3dc" stroke-width="0.7"/>
<circle cx="235.3" cy="84.7" r="2" fill="#ffffff" stroke="#c9d3dc" stroke-width="0.7"/>
<circle cx="247" cy="84.7" r="2" fill="#ffffff" stroke="#c9d3dc" stroke-width="0.7"/>
<circle cx="258.7" cy="84.7" r="2" fill="#ffffff" stroke="#c9d3dc" stroke-width="0.7"/>
<circle cx="130" cy="97.1" r="2" fill="#ffffff" stroke="#c9d3dc" stroke-width="0.7"/>
<circle cx="141.7" cy="97.1" r="2" fill="#ffffff" stroke="#c9d3dc" stroke-width="0.7"/>
<circle cx="153.4" cy="97.1" r="2" fill="#ffffff" stroke="#c9d3dc" stroke-width="0.7"/>
<circle cx="165.1" cy="97.1" r="2" fill="#ffffff" stroke="#c9d3dc" stroke-width="0.7"/>
<circle cx="176.8" cy="97.1" r="2" fill="#ffffff" stroke="#c9d3dc" stroke-width="0.7"/>
<circle cx="211.9" cy="97.1" r="2" fill="#ffffff" stroke="#c9d3dc" stroke-width="0.7"/>
<circle cx="223.6" cy="97.1" r="2" fill="#ffffff" stroke="#c9d3dc" stroke-width="0.7"/>
<circle cx="235.3" cy="97.1" r="2" fill="#ffffff" stroke="#c9d3dc" stroke-width="0.7"/>
<circle cx="247" cy="97.1" r="2" fill="#ffffff" stroke="#c9d3dc" stroke-width="0.7"/>
<circle cx="258.7" cy="97.1" r="2" fill="#ffffff" stroke="#c9d3dc" stroke-width="0.7"/>
<circle cx="130" cy="109.5" r="2" fill="#ffffff" stroke="#c9d3dc" stroke-width="0.7"/>
<circle cx="141.7" cy="109.5" r="2" fill="#ffffff" stroke="#c9d3dc" stroke-width="0.7"/>
<circle cx="153.4" cy="109.5" r="2" fill="#ffffff" stroke="#c9d3dc" stroke-width="0.7"/>
<circle cx="165.1" cy="109.5" r="2" fill="#ffffff" stroke="#c9d3dc" stroke-width="0.7"/>
<circle cx="176.8" cy="109.5" r="2" fill="#ffffff" stroke="#c9d3dc" stroke-width="0.7"/>
<circle cx="211.9" cy="109.5" r="2" fill="#ffffff" stroke="#c9d3dc" stroke-width="0.7"/>
<circle cx="223.6" cy="109.5" r="2" fill="#ffffff" stroke="#c9d3dc" stroke-width="0.7"/>
<circle cx="235.3" cy="109.5" r="2" fill="#ffffff" stroke="#c9d3dc" stroke-width="0.7"/>
<circle cx="247" cy="109.5" r="2" fill="#ffffff" stroke="#c9d3dc" stroke-width="0.7"/>
<circle cx="258.7" cy="109.5" r="2" fill="#ffffff" stroke="#c9d3dc" stroke-width="0.7"/>
<circle cx="130" cy="121.9" r="2" fill="#ffffff" stroke="#c9d3dc" stroke-width="0.7"/>
<circle cx="141.7" cy="121.9" r="2" fill="#ffffff" stroke="#c9d3dc" stroke-width="0.7"/>
<circle cx="153.4" cy="121.9" r="2" fill="#ffffff" stroke="#c9d3dc" stroke-width="0.7"/>
<circle cx="165.1" cy="121.9" r="2" fill="#ffffff" stroke="#c9d3dc" stroke-width="0.7"/>
<circle cx="176.8" cy="121.9" r="2" fill="#ffffff" stroke="#c9d3dc" stroke-width="0.7"/>
<circle cx="211.9" cy="121.9" r="2" fill="#ffffff" stroke="#c9d3dc" stroke-width="0.7"/>
<circle cx="223.6" cy="121.9" r="2" fill="#ffffff" stroke="#c9d3dc" stroke-width="0.7"/>
<circle cx="235.3" cy="121.9" r="2" fill="#ffffff" stroke="#c9d3dc" stroke-width="0.7"/>
<circle cx="247" cy="121.9" r="2" fill="#ffffff" stroke="#c9d3dc" stroke-width="0.7"/>
<circle cx="258.7" cy="121.9" r="2" fill="#ffffff" stroke="#c9d3dc" stroke-width="0.7"/>
<circle cx="130" cy="134.3" r="2" fill="#ffffff" stroke="#c9d3dc" stroke-width="0.7"/>
<circle cx="141.7" cy="134.3" r="2" fill="#ffffff" stroke="#c9d3dc" stroke-width="0.7"/>
<circle cx="153.4" cy="134.3" r="2" fill="#ffffff" stroke="#c9d3dc" stroke-width="0.7"/>
<circle cx="165.1" cy="134.3" r="2" fill="#ffffff" stroke="#c9d3dc" stroke-width="0.7"/>
<circle cx="176.8" cy="134.3" r="2" fill="#ffffff" stroke="#c9d3dc" stroke-width="0.7"/>
<circle cx="211.9" cy="134.3" r="2" fill="#ffffff" stroke="#c9d3dc" stroke-width="0.7"/>
<circle cx="223.6" cy="134.3" r="2" fill="#ffffff" stroke="#c9d3dc" stroke-width="0.7"/>
<circle cx="235.3" cy="134.3" r="2" fill="#ffffff" stroke="#c9d3dc" stroke-width="0.7"/>
<circle cx="247" cy="134.3" r="2" fill="#ffffff" stroke="#c9d3dc" stroke-width="0.7"/>
<circle cx="258.7" cy="134.3" r="2" fill="#ffffff" stroke="#c9d3dc" stroke-width="0.7"/>
<circle cx="130" cy="146.7" r="2" fill="#ffffff" stroke="#c9d3dc" stroke-width="0.7"/>
<circle cx="141.7" cy="146.7" r="2" fill="#ffffff" stroke="#c9d3dc" stroke-width="0.7"/>
<circle cx="153.4" cy="146.7" r="2" fill="#ffffff" stroke="#c9d3dc" stroke-width="0.7"/>
<circle cx="165.1" cy="146.7" r="2" fill="#ffffff" stroke="#c9d3dc" stroke-width="0.7"/>
<circle cx="176.8" cy="146.7" r="2" fill="#ffffff" stroke="#c9d3dc" stroke-width="0.7"/>
<circle cx="211.9" cy="146.7" r="2" fill="#ffffff" stroke="#c9d3dc" stroke-width="0.7"/>
<circle cx="223.6" cy="146.7" r="2" fill="#ffffff" stroke="#c9d3dc" stroke-width="0.7"/>
<circle cx="235.3" cy="146.7" r="2" fill="#ffffff" stroke="#c9d3dc" stroke-width="0.7"/>
<circle cx="247" cy="146.7" r="2" fill="#ffffff" stroke="#c9d3dc" stroke-width="0.7"/>
<circle cx="258.7" cy="146.7" r="2" fill="#ffffff" stroke="#c9d3dc" stroke-width="0.7"/>
<circle cx="130" cy="159.1" r="2" fill="#ffffff" stroke="#c9d3dc" stroke-width="0.7"/>
<circle cx="141.7" cy="159.1" r="2" fill="#ffffff" stroke="#c9d3dc" stroke-width="0.7"/>
<circle cx="153.4" cy="159.1" r="2" fill="#ffffff" stroke="#c9d3dc" stroke-width="0.7"/>
<circle cx="165.1" cy="159.1" r="2" fill="#ffffff" stroke="#c9d3dc" stroke-width="0.7"/>
<circle cx="176.8" cy="159.1" r="2" fill="#ffffff" stroke="#c9d3dc" stroke-width="0.7"/>
<circle cx="211.9" cy="159.1" r="2" fill="#ffffff" stroke="#c9d3dc" stroke-width="0.7"/>
<circle cx="223.6" cy="159.1" r="2" fill="#ffffff" stroke="#c9d3dc" stroke-width="0.7"/>
<circle cx="235.3" cy="159.1" r="2" fill="#ffffff" stroke="#c9d3dc" stroke-width="0.7"/>
<circle cx="247" cy="159.1" r="2" fill="#ffffff" stroke="#c9d3dc" stroke-width="0.7"/>
<circle cx="258.7" cy="159.1" r="2" fill="#ffffff" stroke="#c9d3dc" stroke-width="0.7"/>
<circle cx="130" cy="171.5" r="2" fill="#ffffff" stroke="#c9d3dc" stroke-width="0.7"/>
<circle cx="141.7" cy="171.5" r="2" fill="#ffffff" stroke="#c9d3dc" stroke-width="0.7"/>
<circle cx="153.4" cy="171.5" r="2" fill="#ffffff" stroke="#c9d3dc" stroke-width="0.7"/>
<circle cx="165.1" cy="171.5" r="2" fill="#ffffff" stroke="#c9d3dc" stroke-width="0.7"/>
<circle cx="176.8" cy="171.5" r="2" fill="#ffffff" stroke="#c9d3dc" stroke-width="0.7"/>
<circle cx="211.9" cy="171.5" r="2" fill="#ffffff" stroke="#c9d3dc" stroke-width="0.7"/>
<circle cx="223.6" cy="171.5" r="2" fill="#ffffff" stroke="#c9d3dc" stroke-width="0.7"/>
<circle cx="235.3" cy="171.5" r="2" fill="#ffffff" stroke="#c9d3dc" stroke-width="0.7"/>
<circle cx="247" cy="171.5" r="2" fill="#ffffff" stroke="#c9d3dc" stroke-width="0.7"/>
<circle cx="258.7" cy="171.5" r="2" fill="#ffffff" stroke="#c9d3dc" stroke-width="0.7"/>
<circle cx="130" cy="183.9" r="2" fill="#ffffff" stroke="#c9d3dc" stroke-width="0.7"/>
<circle cx="141.7" cy="183.9" r="2" fill="#ffffff" stroke="#c9d3dc" stroke-width="0.7"/>
<circle cx="153.4" cy="183.9" r="2" fill="#ffffff" stroke="#c9d3dc" stroke-width="0.7"/>
<circle cx="165.1" cy="183.9" r="2" fill="#ffffff" stroke="#c9d3dc" stroke-width="0.7"/>
<circle cx="176.8" cy="183.9" r="2" fill="#ffffff" stroke="#c9d3dc" stroke-width="0.7"/>
<circle cx="211.9" cy="183.9" r="2" fill="#ffffff" stroke="#c9d3dc" stroke-width="0.7"/>
<circle cx="223.6" cy="183.9" r="2" fill="#ffffff" stroke="#c9d3dc" stroke-width="0.7"/>
<circle cx="235.3" cy="183.9" r="2" fill="#ffffff" stroke="#c9d3dc" stroke-width="0.7"/>
<circle cx="247" cy="183.9" r="2" fill="#ffffff" stroke="#c9d3dc" stroke-width="0.7"/>
<circle cx="258.7" cy="183.9" r="2" fill="#ffffff" stroke="#c9d3dc" stroke-width="0.7"/>
<circle cx="130" cy="196.3" r="2" fill="#ffffff" stroke="#c9d3dc" stroke-width="0.7"/>
<circle cx="141.7" cy="196.3" r="2" fill="#ffffff" stroke="#c9d3dc" stroke-width="0.7"/>
<circle cx="153.4" cy="196.3" r="2" fill="#ffffff" stroke="#c9d3dc" stroke-width="0.7"/>
<circle cx="165.1" cy="196.3" r="2" fill="#ffffff" stroke="#c9d3dc" stroke-width="0.7"/>
<circle cx="176.8" cy="196.3" r="2" fill="#ffffff" stroke="#c9d3dc" stroke-width="0.7"/>
<circle cx="211.9" cy="196.3" r="2" fill="#ffffff" stroke="#c9d3dc" stroke-width="0.7"/>
<circle cx="223.6" cy="196.3" r="2" fill="#ffffff" stroke="#c9d3dc" stroke-width="0.7"/>
<circle cx="235.3" cy="196.3" r="2" fill="#ffffff" stroke="#c9d3dc" stroke-width="0.7"/>
<circle cx="247" cy="196.3" r="2" fill="#ffffff" stroke="#c9d3dc" stroke-width="0.7"/>
<circle cx="258.7" cy="196.3" r="2" fill="#ffffff" stroke="#c9d3dc" stroke-width="0.7"/>
<circle cx="130" cy="208.7" r="2" fill="#ffffff" stroke="#c9d3dc" stroke-width="0.7"/>
<circle cx="141.7" cy="208.7" r="2" fill="#ffffff" stroke="#c9d3dc" stroke-width="0.7"/>
<circle cx="153.4" cy="208.7" r="2" fill="#ffffff" stroke="#c9d3dc" stroke-width="0.7"/>
<circle cx="165.1" cy="208.7" r="2" fill="#ffffff" stroke="#c9d3dc" stroke-width="0.7"/>
<circle cx="176.8" cy="208.7" r="2" fill="#ffffff" stroke="#c9d3dc" stroke-width="0.7"/>
<circle cx="211.9" cy="208.7" r="2" fill="#ffffff" stroke="#c9d3dc" stroke-width="0.7"/>
<circle cx="223.6" cy="208.7" r="2" fill="#ffffff" stroke="#c9d3dc" stroke-width="0.7"/>
<circle cx="235.3" cy="208.7" r="2" fill="#ffffff" stroke="#c9d3dc" stroke-width="0.7"/>
<circle cx="247" cy="208.7" r="2" fill="#ffffff" stroke="#c9d3dc" stroke-width="0.7"/>
<circle cx="258.7" cy="208.7" r="2" fill="#ffffff" stroke="#c9d3dc" stroke-width="0.7"/>
<circle cx="130" cy="221.1" r="2" fill="#ffffff" stroke="#c9d3dc" stroke-width="0.7"/>
<circle cx="141.7" cy="221.1" r="2" fill="#ffffff" stroke="#c9d3dc" stroke-width="0.7"/>
<circle cx="153.4" cy="221.1" r="2" fill="#ffffff" stroke="#c9d3dc" stroke-width="0.7"/>
<circle cx="165.1" cy="221.1" r="2" fill="#ffffff" stroke="#c9d3dc" stroke-width="0.7"/>
<circle cx="176.8" cy="221.1" r="2" fill="#ffffff" stroke="#c9d3dc" stroke-width="0.7"/>
<circle cx="211.9" cy="221.1" r="2" fill="#ffffff" stroke="#c9d3dc" stroke-width="0.7"/>
<circle cx="223.6" cy="221.1" r="2" fill="#ffffff" stroke="#c9d3dc" stroke-width="0.7"/>
<circle cx="235.3" cy="221.1" r="2" fill="#ffffff" stroke="#c9d3dc" stroke-width="0.7"/>
<circle cx="247" cy="221.1" r="2" fill="#ffffff" stroke="#c9d3dc" stroke-width="0.7"/>
<circle cx="258.7" cy="221.1" r="2" fill="#ffffff" stroke="#c9d3dc" stroke-width="0.7"/>
<circle cx="130" cy="233.5" r="2" fill="#ffffff" stroke="#c9d3dc" stroke-width="0.7"/>
<circle cx="141.7" cy="233.5" r="2" fill="#ffffff" stroke="#c9d3dc" stroke-width="0.7"/>
<circle cx="153.4" cy="233.5" r="2" fill="#ffffff" stroke="#c9d3dc" stroke-width="0.7"/>
<circle cx="165.1" cy="233.5" r="2" fill="#ffffff" stroke="#c9d3dc" stroke-width="0.7"/>
<circle cx="176.8" cy="233.5" r="2" fill="#ffffff" stroke="#c9d3dc" stroke-width="0.7"/>
<circle cx="211.9" cy="233.5" r="2" fill="#ffffff" stroke="#c9d3dc" stroke-width="0.7"/>
<circle cx="223.6" cy="233.5" r="2" fill="#ffffff" stroke="#c9d3dc" stroke-width="0.7"/>
<circle cx="235.3" cy="233.5" r="2" fill="#ffffff" stroke="#c9d3dc" stroke-width="0.7"/>
<circle cx="247" cy="233.5" r="2" fill="#ffffff" stroke="#c9d3dc" stroke-width="0.7"/>
<circle cx="258.7" cy="233.5" r="2" fill="#ffffff" stroke="#c9d3dc" stroke-width="0.7"/>
<circle cx="130" cy="245.9" r="2" fill="#ffffff" stroke="#c9d3dc" stroke-width="0.7"/>
<circle cx="141.7" cy="245.9" r="2" fill="#ffffff" stroke="#c9d3dc" stroke-width="0.7"/>
<circle cx="153.4" cy="245.9" r="2" fill="#ffffff" stroke="#c9d3dc" stroke-width="0.7"/>
<circle cx="165.1" cy="245.9" r="2" fill="#ffffff" stroke="#c9d3dc" stroke-width="0.7"/>
<circle cx="176.8" cy="245.9" r="2" fill="#ffffff" stroke="#c9d3dc" stroke-width="0.7"/>
<circle cx="211.9" cy="245.9" r="2" fill="#ffffff" stroke="#c9d3dc" stroke-width="0.7"/>
<circle cx="223.6" cy="245.9" r="2" fill="#ffffff" stroke="#c9d3dc" stroke-width="0.7"/>
<circle cx="235.3" cy="245.9" r="2" fill="#ffffff" stroke="#c9d3dc" stroke-width="0.7"/>
<circle cx="247" cy="245.9" r="2" fill="#ffffff" stroke="#c9d3dc" stroke-width="0.7"/>
<circle cx="258.7" cy="245.9" r="2" fill="#ffffff" stroke="#c9d3dc" stroke-width="0.7"/>
<circle cx="130" cy="258.3" r="2" fill="#ffffff" stroke="#c9d3dc" stroke-width="0.7"/>
<circle cx="141.7" cy="258.3" r="2" fill="#ffffff" stroke="#c9d3dc" stroke-width="0.7"/>
<circle cx="153.4" cy="258.3" r="2" fill="#ffffff" stroke="#c9d3dc" stroke-width="0.7"/>
<circle cx="165.1" cy="258.3" r="2" fill="#ffffff" stroke="#c9d3dc" stroke-width="0.7"/>
<circle cx="176.8" cy="258.3" r="2" fill="#ffffff" stroke="#c9d3dc" stroke-width="0.7"/>
<circle cx="211.9" cy="258.3" r="2" fill="#ffffff" stroke="#c9d3dc" stroke-width="0.7"/>
<circle cx="223.6" cy="258.3" r="2" fill="#ffffff" stroke="#c9d3dc" stroke-width="0.7"/>
<circle cx="235.3" cy="258.3" r="2" fill="#ffffff" stroke="#c9d3dc" stroke-width="0.7"/>
<circle cx="247" cy="258.3" r="2" fill="#ffffff" stroke="#c9d3dc" stroke-width="0.7"/>
<circle cx="258.7" cy="258.3" r="2" fill="#ffffff" stroke="#c9d3dc" stroke-width="0.7"/>
<circle cx="130" cy="270.7" r="2" fill="#ffffff" stroke="#c9d3dc" stroke-width="0.7"/>
<circle cx="141.7" cy="270.7" r="2" fill="#ffffff" stroke="#c9d3dc" stroke-width="0.7"/>
<circle cx="153.4" cy="270.7" r="2" fill="#ffffff" stroke="#c9d3dc" stroke-width="0.7"/>
<circle cx="165.1" cy="270.7" r="2" fill="#ffffff" stroke="#c9d3dc" stroke-width="0.7"/>
<circle cx="176.8" cy="270.7" r="2" fill="#ffffff" stroke="#c9d3dc" stroke-width="0.7"/>
<circle cx="211.9" cy="270.7" r="2" fill="#ffffff" stroke="#c9d3dc" stroke-width="0.7"/>
<circle cx="223.6" cy="270.7" r="2" fill="#ffffff" stroke="#c9d3dc" stroke-width="0.7"/>
<circle cx="235.3" cy="270.7" r="2" fill="#ffffff" stroke="#c9d3dc" stroke-width="0.7"/>
<circle cx="247" cy="270.7" r="2" fill="#ffffff" stroke="#c9d3dc" stroke-width="0.7"/>
<circle cx="258.7" cy="270.7" r="2" fill="#ffffff" stroke="#c9d3dc" stroke-width="0.7"/>
<circle cx="130" cy="283.1" r="2" fill="#ffffff" stroke="#c9d3dc" stroke-width="0.7"/>
<circle cx="141.7" cy="283.1" r="2" fill="#ffffff" stroke="#c9d3dc" stroke-width="0.7"/>
<circle cx="153.4" cy="283.1" r="2" fill="#ffffff" stroke="#c9d3dc" stroke-width="0.7"/>
<circle cx="165.1" cy="283.1" r="2" fill="#ffffff" stroke="#c9d3dc" stroke-width="0.7"/>
<circle cx="176.8" cy="283.1" r="2" fill="#ffffff" stroke="#c9d3dc" stroke-width="0.7"/>
<circle cx="211.9" cy="283.1" r="2" fill="#ffffff" stroke="#c9d3dc" stroke-width="0.7"/>
<circle cx="223.6" cy="283.1" r="2" fill="#ffffff" stroke="#c9d3dc" stroke-width="0.7"/>
<circle cx="235.3" cy="283.1" r="2" fill="#ffffff" stroke="#c9d3dc" stroke-width="0.7"/>
<circle cx="247" cy="283.1" r="2" fill="#ffffff" stroke="#c9d3dc" stroke-width="0.7"/>
<circle cx="258.7" cy="283.1" r="2" fill="#ffffff" stroke="#c9d3dc" stroke-width="0.7"/>
<circle cx="130" cy="295.5" r="2" fill="#ffffff" stroke="#c9d3dc" stroke-width="0.7"/>
<circle cx="141.7" cy="295.5" r="2" fill="#ffffff" stroke="#c9d3dc" stroke-width="0.7"/>
<circle cx="153.4" cy="295.5" r="2" fill="#ffffff" stroke="#c9d3dc" stroke-width="0.7"/>
<circle cx="165.1" cy="295.5" r="2" fill="#ffffff" stroke="#c9d3dc" stroke-width="0.7"/>
<circle cx="176.8" cy="295.5" r="2" fill="#ffffff" stroke="#c9d3dc" stroke-width="0.7"/>
<circle cx="211.9" cy="295.5" r="2" fill="#ffffff" stroke="#c9d3dc" stroke-width="0.7"/>
<circle cx="223.6" cy="295.5" r="2" fill="#ffffff" stroke="#c9d3dc" stroke-width="0.7"/>
<circle cx="235.3" cy="295.5" r="2" fill="#ffffff" stroke="#c9d3dc" stroke-width="0.7"/>
<circle cx="247" cy="295.5" r="2" fill="#ffffff" stroke="#c9d3dc" stroke-width="0.7"/>
<circle cx="258.7" cy="295.5" r="2" fill="#ffffff" stroke="#c9d3dc" stroke-width="0.7"/>
<circle cx="130" cy="307.9" r="2" fill="#ffffff" stroke="#c9d3dc" stroke-width="0.7"/>
<circle cx="141.7" cy="307.9" r="2" fill="#ffffff" stroke="#c9d3dc" stroke-width="0.7"/>
<circle cx="153.4" cy="307.9" r="2" fill="#ffffff" stroke="#c9d3dc" stroke-width="0.7"/>
<circle cx="165.1" cy="307.9" r="2" fill="#ffffff" stroke="#c9d3dc" stroke-width="0.7"/>
<circle cx="176.8" cy="307.9" r="2" fill="#ffffff" stroke="#c9d3dc" stroke-width="0.7"/>
<circle cx="211.9" cy="307.9" r="2" fill="#ffffff" stroke="#c9d3dc" stroke-width="0.7"/>
<circle cx="223.6" cy="307.9" r="2" fill="#ffffff" stroke="#c9d3dc" stroke-width="0.7"/>
<circle cx="235.3" cy="307.9" r="2" fill="#ffffff" stroke="#c9d3dc" stroke-width="0.7"/>
<circle cx="247" cy="307.9" r="2" fill="#ffffff" stroke="#c9d3dc" stroke-width="0.7"/>
<circle cx="258.7" cy="307.9" r="2" fill="#ffffff" stroke="#c9d3dc" stroke-width="0.7"/>
<circle cx="130" cy="320.3" r="2" fill="#ffffff" stroke="#c9d3dc" stroke-width="0.7"/>
<circle cx="141.7" cy="320.3" r="2" fill="#ffffff" stroke="#c9d3dc" stroke-width="0.7"/>
<circle cx="153.4" cy="320.3" r="2" fill="#ffffff" stroke="#c9d3dc" stroke-width="0.7"/>
<circle cx="165.1" cy="320.3" r="2" fill="#ffffff" stroke="#c9d3dc" stroke-width="0.7"/>
<circle cx="176.8" cy="320.3" r="2" fill="#ffffff" stroke="#c9d3dc" stroke-width="0.7"/>
<circle cx="211.9" cy="320.3" r="2" fill="#ffffff" stroke="#c9d3dc" stroke-width="0.7"/>
<circle cx="223.6" cy="320.3" r="2" fill="#ffffff" stroke="#c9d3dc" stroke-width="0.7"/>
<circle cx="235.3" cy="320.3" r="2" fill="#ffffff" stroke="#c9d3dc" stroke-width="0.7"/>
<circle cx="247" cy="320.3" r="2" fill="#ffffff" stroke="#c9d3dc" stroke-width="0.7"/>
<circle cx="258.7" cy="320.3" r="2" fill="#ffffff" stroke="#c9d3dc" stroke-width="0.7"/>
<circle cx="130" cy="332.7" r="2" fill="#ffffff" stroke="#c9d3dc" stroke-width="0.7"/>
<circle cx="141.7" cy="332.7" r="2" fill="#ffffff" stroke="#c9d3dc" stroke-width="0.7"/>
<circle cx="153.4" cy="332.7" r="2" fill="#ffffff" stroke="#c9d3dc" stroke-width="0.7"/>
<circle cx="165.1" cy="332.7" r="2" fill="#ffffff" stroke="#c9d3dc" stroke-width="0.7"/>
<circle cx="176.8" cy="332.7" r="2" fill="#ffffff" stroke="#c9d3dc" stroke-width="0.7"/>
<circle cx="211.9" cy="332.7" r="2" fill="#ffffff" stroke="#c9d3dc" stroke-width="0.7"/>
<circle cx="223.6" cy="332.7" r="2" fill="#ffffff" stroke="#c9d3dc" stroke-width="0.7"/>
<circle cx="235.3" cy="332.7" r="2" fill="#ffffff" stroke="#c9d3dc" stroke-width="0.7"/>
<circle cx="247" cy="332.7" r="2" fill="#ffffff" stroke="#c9d3dc" stroke-width="0.7"/>
<circle cx="258.7" cy="332.7" r="2" fill="#ffffff" stroke="#c9d3dc" stroke-width="0.7"/>
<circle cx="130" cy="345.1" r="2" fill="#ffffff" stroke="#c9d3dc" stroke-width="0.7"/>
<circle cx="141.7" cy="345.1" r="2" fill="#ffffff" stroke="#c9d3dc" stroke-width="0.7"/>
<circle cx="153.4" cy="345.1" r="2" fill="#ffffff" stroke="#c9d3dc" stroke-width="0.7"/>
<circle cx="165.1" cy="345.1" r="2" fill="#ffffff" stroke="#c9d3dc" stroke-width="0.7"/>
<circle cx="176.8" cy="345.1" r="2" fill="#ffffff" stroke="#c9d3dc" stroke-width="0.7"/>
<circle cx="211.9" cy="345.1" r="2" fill="#ffffff" stroke="#c9d3dc" stroke-width="0.7"/>
<circle cx="223.6" cy="345.1" r="2" fill="#ffffff" stroke="#c9d3dc" stroke-width="0.7"/>
<circle cx="235.3" cy="345.1" r="2" fill="#ffffff" stroke="#c9d3dc" stroke-width="0.7"/>
<circle cx="247" cy="345.1" r="2" fill="#ffffff" stroke="#c9d3dc" stroke-width="0.7"/>
<circle cx="258.7" cy="345.1" r="2" fill="#ffffff" stroke="#c9d3dc" stroke-width="0.7"/>
<circle cx="130" cy="357.5" r="2" fill="#ffffff" stroke="#c9d3dc" stroke-width="0.7"/>
<circle cx="141.7" cy="357.5" r="2" fill="#ffffff" stroke="#c9d3dc" stroke-width="0.7"/>
<circle cx="153.4" cy="357.5" r="2" fill="#ffffff" stroke="#c9d3dc" stroke-width="0.7"/>
<circle cx="165.1" cy="357.5" r="2" fill="#ffffff" stroke="#c9d3dc" stroke-width="0.7"/>
<circle cx="176.8" cy="357.5" r="2" fill="#ffffff" stroke="#c9d3dc" stroke-width="0.7"/>
<circle cx="211.9" cy="357.5" r="2" fill="#ffffff" stroke="#c9d3dc" stroke-width="0.7"/>
<circle cx="223.6" cy="357.5" r="2" fill="#ffffff" stroke="#c9d3dc" stroke-width="0.7"/>
<circle cx="235.3" cy="357.5" r="2" fill="#ffffff" stroke="#c9d3dc" stroke-width="0.7"/>
<circle cx="247" cy="357.5" r="2" fill="#ffffff" stroke="#c9d3dc" stroke-width="0.7"/>
<circle cx="258.7" cy="357.5" r="2" fill="#ffffff" stroke="#c9d3dc" stroke-width="0.7"/>
<circle cx="130" cy="369.9" r="2" fill="#ffffff" stroke="#c9d3dc" stroke-width="0.7"/>
<circle cx="141.7" cy="369.9" r="2" fill="#ffffff" stroke="#c9d3dc" stroke-width="0.7"/>
<circle cx="153.4" cy="369.9" r="2" fill="#ffffff" stroke="#c9d3dc" stroke-width="0.7"/>
<circle cx="165.1" cy="369.9" r="2" fill="#ffffff" stroke="#c9d3dc" stroke-width="0.7"/>
<circle cx="176.8" cy="369.9" r="2" fill="#ffffff" stroke="#c9d3dc" stroke-width="0.7"/>
<circle cx="211.9" cy="369.9" r="2" fill="#ffffff" stroke="#c9d3dc" stroke-width="0.7"/>
<circle cx="223.6" cy="369.9" r="2" fill="#ffffff" stroke="#c9d3dc" stroke-width="0.7"/>
<circle cx="235.3" cy="369.9" r="2" fill="#ffffff" stroke="#c9d3dc" stroke-width="0.7"/>
<circle cx="247" cy="369.9" r="2" fill="#ffffff" stroke="#c9d3dc" stroke-width="0.7"/>
<circle cx="258.7" cy="369.9" r="2" fill="#ffffff" stroke="#c9d3dc" stroke-width="0.7"/>
<circle cx="130" cy="382.3" r="2" fill="#ffffff" stroke="#c9d3dc" stroke-width="0.7"/>
<circle cx="141.7" cy="382.3" r="2" fill="#ffffff" stroke="#c9d3dc" stroke-width="0.7"/>
<circle cx="153.4" cy="382.3" r="2" fill="#ffffff" stroke="#c9d3dc" stroke-width="0.7"/>
<circle cx="165.1" cy="382.3" r="2" fill="#ffffff" stroke="#c9d3dc" stroke-width="0.7"/>
<circle cx="176.8" cy="382.3" r="2" fill="#ffffff" stroke="#c9d3dc" stroke-width="0.7"/>
<circle cx="211.9" cy="382.3" r="2" fill="#ffffff" stroke="#c9d3dc" stroke-width="0.7"/>
<circle cx="223.6" cy="382.3" r="2" fill="#ffffff" stroke="#c9d3dc" stroke-width="0.7"/>
<circle cx="235.3" cy="382.3" r="2" fill="#ffffff" stroke="#c9d3dc" stroke-width="0.7"/>
<circle cx="247" cy="382.3" r="2" fill="#ffffff" stroke="#c9d3dc" stroke-width="0.7"/>
<circle cx="258.7" cy="382.3" r="2" fill="#ffffff" stroke="#c9d3dc" stroke-width="0.7"/>
<circle cx="130" cy="394.7" r="2" fill="#ffffff" stroke="#c9d3dc" stroke-width="0.7"/>
<circle cx="141.7" cy="394.7" r="2" fill="#ffffff" stroke="#c9d3dc" stroke-width="0.7"/>
<circle cx="153.4" cy="394.7" r="2" fill="#ffffff" stroke="#c9d3dc" stroke-width="0.7"/>
<circle cx="165.1" cy="394.7" r="2" fill="#ffffff" stroke="#c9d3dc" stroke-width="0.7"/>
<circle cx="176.8" cy="394.7" r="2" fill="#ffffff" stroke="#c9d3dc" stroke-width="0.7"/>
<circle cx="211.9" cy="394.7" r="2" fill="#ffffff" stroke="#c9d3dc" stroke-width="0.7"/>
<circle cx="223.6" cy="394.7" r="2" fill="#ffffff" stroke="#c9d3dc" stroke-width="0.7"/>
<circle cx="235.3" cy="394.7" r="2" fill="#ffffff" stroke="#c9d3dc" stroke-width="0.7"/>
<circle cx="247" cy="394.7" r="2" fill="#ffffff" stroke="#c9d3dc" stroke-width="0.7"/>
<circle cx="258.7" cy="394.7" r="2" fill="#ffffff" stroke="#c9d3dc" stroke-width="0.7"/>
<circle cx="130" cy="407.1" r="2" fill="#ffffff" stroke="#c9d3dc" stroke-width="0.7"/>
<circle cx="141.7" cy="407.1" r="2" fill="#ffffff" stroke="#c9d3dc" stroke-width="0.7"/>
<circle cx="153.4" cy="407.1" r="2" fill="#ffffff" stroke="#c9d3dc" stroke-width="0.7"/>
<circle cx="165.1" cy="407.1" r="2" fill="#ffffff" stroke="#c9d3dc" stroke-width="0.7"/>
<circle cx="176.8" cy="407.1" r="2" fill="#ffffff" stroke="#c9d3dc" stroke-width="0.7"/>
<circle cx="211.9" cy="407.1" r="2" fill="#ffffff" stroke="#c9d3dc" stroke-width="0.7"/>
<circle cx="223.6" cy="407.1" r="2" fill="#ffffff" stroke="#c9d3dc" stroke-width="0.7"/>
<circle cx="235.3" cy="407.1" r="2" fill="#ffffff" stroke="#c9d3dc" stroke-width="0.7"/>
<circle cx="247" cy="407.1" r="2" fill="#ffffff" stroke="#c9d3dc" stroke-width="0.7"/>
<circle cx="258.7" cy="407.1" r="2" fill="#ffffff" stroke="#c9d3dc" stroke-width="0.7"/>
<path d="M64 422.5L64 34.5" fill="none" stroke="#222222" stroke-width="2" data-kablo=""/>
<path d="M36 369.9L64 369.9" fill="none" stroke="var(--zemin, #ffffff)" stroke-width="4.6"/>
<path d="M36 369.9L64 369.9" fill="none" stroke="#222222" stroke-width="2" data-kablo=""/>
<circle cx="36" cy="369.9" r="2.5" fill="#1f2d3d"/>
<circle cx="64" cy="369.9" r="2.5" fill="#1f2d3d"/>
<path d="M36 47.5L130 47.5" fill="none" stroke="var(--zemin, #ffffff)" stroke-width="4.6"/>
<path d="M36 47.5L130 47.5" fill="none" stroke="#d99e00" stroke-width="2"/>
<circle cx="36" cy="47.5" r="2.5" fill="#1f2d3d"/>
<circle cx="130" cy="47.5" r="2.5" fill="#1f2d3d"/>
<path d="M130 97.1L64 97.1" fill="none" stroke="var(--zemin, #ffffff)" stroke-width="4.6"/>
<path d="M130 97.1L64 97.1" fill="none" stroke="#222222" stroke-width="2" data-kablo=""/>
<circle cx="130" cy="97.1" r="2.5" fill="#1f2d3d"/>
<circle cx="64" cy="97.1" r="2.5" fill="#1f2d3d"/>
<path d="M36 121.9L130 121.9" fill="none" stroke="var(--zemin, #ffffff)" stroke-width="4.6"/>
<path d="M36 121.9L130 121.9" fill="none" stroke="#d99e00" stroke-width="2"/>
<circle cx="36" cy="121.9" r="2.5" fill="#1f2d3d"/>
<circle cx="130" cy="121.9" r="2.5" fill="#1f2d3d"/>
<path d="M130 171.5L64 171.5" fill="none" stroke="var(--zemin, #ffffff)" stroke-width="4.6"/>
<path d="M130 171.5L64 171.5" fill="none" stroke="#222222" stroke-width="2" data-kablo=""/>
<circle cx="130" cy="171.5" r="2.5" fill="#1f2d3d"/>
<circle cx="64" cy="171.5" r="2.5" fill="#1f2d3d"/>
<path d="M36 196.3L130 196.3" fill="none" stroke="var(--zemin, #ffffff)" stroke-width="4.6"/>
<path d="M36 196.3L130 196.3" fill="none" stroke="#d99e00" stroke-width="2"/>
<circle cx="36" cy="196.3" r="2.5" fill="#1f2d3d"/>
<circle cx="130" cy="196.3" r="2.5" fill="#1f2d3d"/>
<path d="M130 245.9L64 245.9" fill="none" stroke="var(--zemin, #ffffff)" stroke-width="4.6"/>
<path d="M130 245.9L64 245.9" fill="none" stroke="#222222" stroke-width="2" data-kablo=""/>
<circle cx="130" cy="245.9" r="2.5" fill="#1f2d3d"/>
<circle cx="64" cy="245.9" r="2.5" fill="#1f2d3d"/>
<path d="M36 59.5L211.9 47.5" fill="none" stroke="var(--zemin, #ffffff)" stroke-width="4.6"/>
<path d="M36 59.5L211.9 47.5" fill="none" stroke="#d99e00" stroke-width="2"/>
<circle cx="36" cy="59.5" r="2.5" fill="#1f2d3d"/>
<circle cx="211.9" cy="47.5" r="2.5" fill="#1f2d3d"/>
<path d="M211.9 97.1L64 97.1" fill="none" stroke="var(--zemin, #ffffff)" stroke-width="4.6"/>
<path d="M211.9 97.1L64 97.1" fill="none" stroke="#222222" stroke-width="2" data-kablo=""/>
<circle cx="211.9" cy="97.1" r="2.5" fill="#1f2d3d"/>
<circle cx="64" cy="97.1" r="2.5" fill="#1f2d3d"/>
<path d="M36 133.9L211.9 121.9" fill="none" stroke="var(--zemin, #ffffff)" stroke-width="4.6"/>
<path d="M36 133.9L211.9 121.9" fill="none" stroke="#d99e00" stroke-width="2"/>
<circle cx="36" cy="133.9" r="2.5" fill="#1f2d3d"/>
<circle cx="211.9" cy="121.9" r="2.5" fill="#1f2d3d"/>
<path d="M211.9 171.5L64 171.5" fill="none" stroke="var(--zemin, #ffffff)" stroke-width="4.6"/>
<path d="M211.9 171.5L64 171.5" fill="none" stroke="#222222" stroke-width="2" data-kablo=""/>
<circle cx="211.9" cy="171.5" r="2.5" fill="#1f2d3d"/>
<circle cx="64" cy="171.5" r="2.5" fill="#1f2d3d"/>
<path d="M36 283.1L130 283.1" fill="none" stroke="var(--zemin, #ffffff)" stroke-width="4.6"/>
<path d="M36 283.1L130 283.1" fill="none" stroke="#d99e00" stroke-width="2"/>
<circle cx="36" cy="283.1" r="2.5" fill="#1f2d3d"/>
<circle cx="130" cy="283.1" r="2.5" fill="#1f2d3d"/>
<path d="M130 307.9L64 307.9" fill="none" stroke="var(--zemin, #ffffff)" stroke-width="4.6"/>
<path d="M130 307.9L64 307.9" fill="none" stroke="#222222" stroke-width="2" data-kablo=""/>
<circle cx="130" cy="307.9" r="2.5" fill="#1f2d3d"/>
<circle cx="64" cy="307.9" r="2.5" fill="#1f2d3d"/>
<path d="M153.4 47.5L153.4 84.7" fill="none" stroke="#5b6b7a" stroke-width="1.1"/>
<rect x="149.4" y="59.1" width="8" height="14" rx="2" fill="#fff3dc" stroke="#0f2a4a" stroke-width="1.1"/>
<path d="M176.8 84.7L176.8 97.1" fill="none" stroke="#5b6b7a" stroke-width="1.1"/>
<circle cx="180.8" cy="90.9" r="4.3" fill="#c62828" stroke="#0f2a4a" stroke-width="1.1"/>
<path d="M153.4 121.9L153.4 159.1" fill="none" stroke="#5b6b7a" stroke-width="1.1"/>
<rect x="149.4" y="133.5" width="8" height="14" rx="2" fill="#fff3dc" stroke="#0f2a4a" stroke-width="1.1"/>
<path d="M176.8 159.1L176.8 171.5" fill="none" stroke="#5b6b7a" stroke-width="1.1"/>
<circle cx="180.8" cy="165.3" r="4.3" fill="#e6af20" stroke="#0f2a4a" stroke-width="1.1"/>
<path d="M153.4 196.3L153.4 233.5" fill="none" stroke="#5b6b7a" stroke-width="1.1"/>
<rect x="149.4" y="207.9" width="8" height="14" rx="2" fill="#fff3dc" stroke="#0f2a4a" stroke-width="1.1"/>
<path d="M176.8 233.5L176.8 245.9" fill="none" stroke="#5b6b7a" stroke-width="1.1"/>
<circle cx="180.8" cy="239.7" r="4.3" fill="#249064" stroke="#0f2a4a" stroke-width="1.1"/>
<path d="M235.3 47.5L235.3 84.7" fill="none" stroke="#5b6b7a" stroke-width="1.1"/>
<rect x="231.3" y="59.1" width="8" height="14" rx="2" fill="#fff3dc" stroke="#0f2a4a" stroke-width="1.1"/>
<path d="M258.7 84.7L258.7 97.1" fill="none" stroke="#5b6b7a" stroke-width="1.1"/>
<circle cx="262.7" cy="90.9" r="4.3" fill="#c62828" stroke="#0f2a4a" stroke-width="1.1"/>
<path d="M235.3 121.9L235.3 159.1" fill="none" stroke="#5b6b7a" stroke-width="1.1"/>
<rect x="231.3" y="133.5" width="8" height="14" rx="2" fill="#fff3dc" stroke="#0f2a4a" stroke-width="1.1"/>
<path d="M258.7 159.1L258.7 171.5" fill="none" stroke="#5b6b7a" stroke-width="1.1"/>
<circle cx="262.7" cy="165.3" r="4.3" fill="#249064" stroke="#0f2a4a" stroke-width="1.1"/>
<rect x="172.8" y="279.1" width="43.1" height="32.8" rx="4" fill="#d4e5ec" stroke="#0f2a4a" stroke-width="1.1"/>
<path d="M176.8 283.1L211.9 283.1" fill="none" stroke="#5b6b7a" stroke-width="1.1"/>
<path d="M176.8 307.9L211.9 307.9" fill="none" stroke="#5b6b7a" stroke-width="1.1"/>
<circle cx="194.4" cy="295.5" r="5" fill="#eaa327" stroke="#0f2a4a" stroke-width="1.1"/>
<rect x="110" y="42.7" width="13" height="9.4" fill="#f4f7fa"/>
<rect x="110" y="55.1" width="13" height="9.4" fill="#f4f7fa"/>
<rect x="110" y="67.5" width="13" height="9.4" fill="#f4f7fa"/>
<rect x="110" y="79.9" width="13" height="9.4" fill="#f4f7fa"/>
<rect x="110" y="92.3" width="13" height="9.4" fill="#f4f7fa"/>
<rect x="110" y="104.7" width="13" height="9.4" fill="#f4f7fa"/>
<rect x="110" y="117.1" width="13" height="9.4" fill="#f4f7fa"/>
<rect x="110" y="129.5" width="13" height="9.4" fill="#f4f7fa"/>
<rect x="110" y="141.9" width="13" height="9.4" fill="#f4f7fa"/>
<rect x="110" y="154.3" width="13" height="9.4" fill="#f4f7fa"/>
<rect x="110" y="166.7" width="13" height="9.4" fill="#f4f7fa"/>
<rect x="110" y="179.1" width="13" height="9.4" fill="#f4f7fa"/>
<rect x="110" y="191.5" width="13" height="9.4" fill="#f4f7fa"/>
<rect x="110" y="203.9" width="13" height="9.4" fill="#f4f7fa"/>
<rect x="110" y="216.3" width="13" height="9.4" fill="#f4f7fa"/>
<rect x="110" y="228.7" width="13" height="9.4" fill="#f4f7fa"/>
<rect x="110" y="241.1" width="13" height="9.4" fill="#f4f7fa"/>
<rect x="110" y="253.5" width="13" height="9.4" fill="#f4f7fa"/>
<rect x="110" y="265.9" width="13" height="9.4" fill="#f4f7fa"/>
<rect x="110" y="278.3" width="13" height="9.4" fill="#f4f7fa"/>
<rect x="110" y="290.7" width="13" height="9.4" fill="#f4f7fa"/>
<rect x="110" y="303.1" width="13" height="9.4" fill="#f4f7fa"/>
<rect x="110" y="315.5" width="13" height="9.4" fill="#f4f7fa"/>
<rect x="110" y="327.9" width="13" height="9.4" fill="#f4f7fa"/>
<rect x="110" y="340.3" width="13" height="9.4" fill="#f4f7fa"/>
<rect x="110" y="352.7" width="13" height="9.4" fill="#f4f7fa"/>
<rect x="110" y="365.1" width="13" height="9.4" fill="#f4f7fa"/>
<rect x="110" y="377.5" width="13" height="9.4" fill="#f4f7fa"/>
<rect x="110" y="389.9" width="13" height="9.4" fill="#f4f7fa"/>
<rect x="110" y="402.3" width="13" height="9.4" fill="#f4f7fa"/>
<text x="127.6" y="27.5" font-size="8.6" fill="#5b6b79" textLength="4.8" lengthAdjust="spacingAndGlyphs">a</text>
<text x="139.3" y="27.5" font-size="8.6" fill="#5b6b79" textLength="4.8" lengthAdjust="spacingAndGlyphs">b</text>
<text x="151.2" y="27.5" font-size="8.6" fill="#5b6b79" textLength="4.3" lengthAdjust="spacingAndGlyphs">c</text>
<text x="162.7" y="27.5" font-size="8.6" fill="#5b6b79" textLength="4.8" lengthAdjust="spacingAndGlyphs">d</text>
<text x="174.4" y="27.5" font-size="8.6" fill="#5b6b79" textLength="4.8" lengthAdjust="spacingAndGlyphs">e</text>
<text x="210.7" y="27.5" font-size="8.6" fill="#5b6b79" textLength="2.4" lengthAdjust="spacingAndGlyphs">f</text>
<text x="221.2" y="27.5" font-size="8.6" fill="#5b6b79" textLength="4.8" lengthAdjust="spacingAndGlyphs">g</text>
<text x="232.9" y="27.5" font-size="8.6" fill="#5b6b79" textLength="4.8" lengthAdjust="spacingAndGlyphs">h</text>
<text x="246" y="27.5" font-size="8.6" fill="#5b6b79" textLength="1.9" lengthAdjust="spacingAndGlyphs">i</text>
<text x="257.7" y="27.5" font-size="8.6" fill="#5b6b79" textLength="1.9" lengthAdjust="spacingAndGlyphs">j</text>
<text x="114" y="12.5" font-size="8.6" fill="#1f2d3d" textLength="14.3" lengthAdjust="spacingAndGlyphs">a–e</text>
<text x="207.9" y="12.5" font-size="8.6" fill="#1f2d3d" textLength="9.1" lengthAdjust="spacingAndGlyphs">f–j</text>
<text x="54.4" y="436.5" font-size="8.6" fill="#1f2d3d" font-weight="bold" textLength="19.1" lengthAdjust="spacingAndGlyphs">GND</text>
<text x="13" y="12.5" font-size="9.4" fill="#1f2d3d" font-weight="bold" textLength="20.9" lengthAdjust="spacingAndGlyphs">UNO</text>
<text x="4" y="372.9" font-size="8.6" fill="#1f2d3d" font-weight="bold" textLength="19.1" lengthAdjust="spacingAndGlyphs">GND</text>
<text x="4" y="50.5" font-size="8.6" fill="#1f2d3d" font-weight="bold" textLength="11" lengthAdjust="spacingAndGlyphs">D8</text>
<text x="4" y="124.9" font-size="8.6" fill="#1f2d3d" font-weight="bold" textLength="11" lengthAdjust="spacingAndGlyphs">D9</text>
<text x="4" y="199.3" font-size="8.6" fill="#1f2d3d" font-weight="bold" textLength="15.8" lengthAdjust="spacingAndGlyphs">D10</text>
<text x="4" y="62.5" font-size="8.6" fill="#1f2d3d" font-weight="bold" textLength="15.8" lengthAdjust="spacingAndGlyphs">D11</text>
<text x="4" y="136.9" font-size="8.6" fill="#1f2d3d" font-weight="bold" textLength="15.8" lengthAdjust="spacingAndGlyphs">D12</text>
<text x="4" y="286.1" font-size="8.6" fill="#1f2d3d" font-weight="bold" textLength="11" lengthAdjust="spacingAndGlyphs">D2</text>
<text x="186.8" y="87.7" font-size="8.6" fill="#1f2d3d" font-weight="bold" textLength="5" lengthAdjust="spacingAndGlyphs">+</text>
<text x="186.8" y="100.1" font-size="8.6" fill="#1f2d3d" font-weight="bold" textLength="2.9" lengthAdjust="spacingAndGlyphs">-</text>
<text x="186.8" y="162.1" font-size="8.6" fill="#1f2d3d" font-weight="bold" textLength="5" lengthAdjust="spacingAndGlyphs">+</text>
<text x="186.8" y="174.5" font-size="8.6" fill="#1f2d3d" font-weight="bold" textLength="2.9" lengthAdjust="spacingAndGlyphs">-</text>
<text x="186.8" y="236.5" font-size="8.6" fill="#1f2d3d" font-weight="bold" textLength="5" lengthAdjust="spacingAndGlyphs">+</text>
<text x="186.8" y="248.9" font-size="8.6" fill="#1f2d3d" font-weight="bold" textLength="2.9" lengthAdjust="spacingAndGlyphs">-</text>
<text x="268.7" y="87.7" font-size="8.6" fill="#1f2d3d" font-weight="bold" textLength="5" lengthAdjust="spacingAndGlyphs">+</text>
<text x="268.7" y="100.1" font-size="8.6" fill="#1f2d3d" font-weight="bold" textLength="2.9" lengthAdjust="spacingAndGlyphs">-</text>
<text x="268.7" y="162.1" font-size="8.6" fill="#1f2d3d" font-weight="bold" textLength="5" lengthAdjust="spacingAndGlyphs">+</text>
<text x="268.7" y="174.5" font-size="8.6" fill="#1f2d3d" font-weight="bold" textLength="2.9" lengthAdjust="spacingAndGlyphs">-</text>
<text x="157.8" y="278.1" font-size="8.6" fill="#1f2d3d" textLength="9.6" lengthAdjust="spacingAndGlyphs">1L</text>
<text x="216.9" y="278.1" font-size="8.6" fill="#1f2d3d" textLength="11" lengthAdjust="spacingAndGlyphs">1R</text>
<text x="157.8" y="302.9" font-size="8.6" fill="#1f2d3d" textLength="9.6" lengthAdjust="spacingAndGlyphs">2L</text>
<text x="216.9" y="302.9" font-size="8.6" fill="#1f2d3d" textLength="11" lengthAdjust="spacingAndGlyphs">2R</text>
<text x="116.2" y="50.5" font-size="8.6" fill="#5b6b79" textLength="4.8" lengthAdjust="spacingAndGlyphs">1</text>
<text x="116.2" y="62.9" font-size="8.6" fill="#5b6b79" textLength="4.8" lengthAdjust="spacingAndGlyphs">2</text>
<text x="116.2" y="75.3" font-size="8.6" fill="#5b6b79" textLength="4.8" lengthAdjust="spacingAndGlyphs">3</text>
<text x="116.2" y="87.7" font-size="8.6" fill="#5b6b79" textLength="4.8" lengthAdjust="spacingAndGlyphs">4</text>
<text x="116.2" y="100.1" font-size="8.6" fill="#5b6b79" textLength="4.8" lengthAdjust="spacingAndGlyphs">5</text>
<text x="116.2" y="112.5" font-size="8.6" fill="#5b6b79" textLength="4.8" lengthAdjust="spacingAndGlyphs">6</text>
<text x="116.2" y="124.9" font-size="8.6" fill="#5b6b79" textLength="4.8" lengthAdjust="spacingAndGlyphs">7</text>
<text x="116.2" y="137.3" font-size="8.6" fill="#5b6b79" textLength="4.8" lengthAdjust="spacingAndGlyphs">8</text>
<text x="116.2" y="149.7" font-size="8.6" fill="#5b6b79" textLength="4.8" lengthAdjust="spacingAndGlyphs">9</text>
<text x="111.4" y="162.1" font-size="8.6" fill="#5b6b79" textLength="9.6" lengthAdjust="spacingAndGlyphs">10</text>
<text x="111.4" y="174.5" font-size="8.6" fill="#5b6b79" textLength="9.6" lengthAdjust="spacingAndGlyphs">11</text>
<text x="111.4" y="186.9" font-size="8.6" fill="#5b6b79" textLength="9.6" lengthAdjust="spacingAndGlyphs">12</text>
<text x="111.4" y="199.3" font-size="8.6" fill="#5b6b79" textLength="9.6" lengthAdjust="spacingAndGlyphs">13</text>
<text x="111.4" y="211.7" font-size="8.6" fill="#5b6b79" textLength="9.6" lengthAdjust="spacingAndGlyphs">14</text>
<text x="111.4" y="224.1" font-size="8.6" fill="#5b6b79" textLength="9.6" lengthAdjust="spacingAndGlyphs">15</text>
<text x="111.4" y="236.5" font-size="8.6" fill="#5b6b79" textLength="9.6" lengthAdjust="spacingAndGlyphs">16</text>
<text x="111.4" y="248.9" font-size="8.6" fill="#5b6b79" textLength="9.6" lengthAdjust="spacingAndGlyphs">17</text>
<text x="111.4" y="261.3" font-size="8.6" fill="#5b6b79" textLength="9.6" lengthAdjust="spacingAndGlyphs">18</text>
<text x="111.4" y="273.7" font-size="8.6" fill="#5b6b79" textLength="9.6" lengthAdjust="spacingAndGlyphs">19</text>
<text x="111.4" y="286.1" font-size="8.6" fill="#5b6b79" textLength="9.6" lengthAdjust="spacingAndGlyphs">20</text>
<text x="111.4" y="298.5" font-size="8.6" fill="#5b6b79" textLength="9.6" lengthAdjust="spacingAndGlyphs">21</text>
<text x="111.4" y="310.9" font-size="8.6" fill="#5b6b79" textLength="9.6" lengthAdjust="spacingAndGlyphs">22</text>
<text x="111.4" y="323.3" font-size="8.6" fill="#5b6b79" textLength="9.6" lengthAdjust="spacingAndGlyphs">23</text>
<text x="111.4" y="335.7" font-size="8.6" fill="#5b6b79" textLength="9.6" lengthAdjust="spacingAndGlyphs">24</text>
<text x="111.4" y="348.1" font-size="8.6" fill="#5b6b79" textLength="9.6" lengthAdjust="spacingAndGlyphs">25</text>
<text x="111.4" y="360.5" font-size="8.6" fill="#5b6b79" textLength="9.6" lengthAdjust="spacingAndGlyphs">26</text>
<text x="111.4" y="372.9" font-size="8.6" fill="#5b6b79" textLength="9.6" lengthAdjust="spacingAndGlyphs">27</text>
<text x="111.4" y="385.3" font-size="8.6" fill="#5b6b79" textLength="9.6" lengthAdjust="spacingAndGlyphs">28</text>
<text x="111.4" y="397.7" font-size="8.6" fill="#5b6b79" textLength="9.6" lengthAdjust="spacingAndGlyphs">29</text>
<text x="111.4" y="410.1" font-size="8.6" fill="#5b6b79" textLength="9.6" lengthAdjust="spacingAndGlyphs">30</text>
</svg>
